<?xml version="1.0" encoding="UTF-8"?>
<svg id="_レイヤー_1" xmlns="http://www.w3.org/2000/svg" version="1.1" viewBox="0 0 446.9 40">
  <!-- Generator: Adobe Illustrator 29.0.0, SVG Export Plug-In . SVG Version: 2.1.0 Build 186)  -->
  <path d="M2.5,29.9c-.6-.8-.6-2.1.5-2.8,2-1.2,4.5-3.8,5.5-5.5,1.1-1.9,4.6-.4,3.2,1.8-1,1.7-3.7,5.3-6.3,6.9-1.1.7-2.4.3-2.9-.5h0ZM6.1,17.6c-2.8.1-3.1-3.5,0-3.6,3.2-.1,6.6-.2,10-.3,0-2.1,0-3.8,0-4.9,0-2.9,4-2.6,4-.2,0,1.2,0,3-.1,5,3.2,0,6.3,0,9.4,0,3.1,0,2.9,3.8-.2,3.7-3-.2-6.1-.2-9.2-.2,0,3.2,0,6.5.1,9.2,0,1.2,0,1.9,0,3,0,3.1-2,5.4-7.9,4.5-3.7-.6-2.1-4.6.5-3.9,1.7.5,3.5.7,3.5-1.4,0-2.8,0-7.2,0-11.3-3.3,0-6.6.2-9.9.3h0ZM29.5,28.9c-1.3-1.9-4.2-4.3-6-5.3-2-1.1,0-4.1,2.3-2.8,1.8,1,5.4,3.3,7.1,5.7.7,1,.2,2.3-.7,2.8s-2,.6-2.7-.5ZM28.6,11.9c-2.3,0-4.2-1.8-4.2-4s1.9-4.1,4.2-4.1,4.3,1.8,4.3,4.1-1.9,4-4.3,4ZM28.6,6c-1.1,0-2.1.9-2.1,1.9s1,1.9,2.1,1.9,2.1-.9,2.1-1.9-1-1.9-2.1-1.9Z"/>
  <path d="M44.9,34.8c-3.9,1.3-4.5-3-1.6-3.8,7-1.9,11-7.8,12-14.6-2.8,0-5.5,0-7.5,0-1.7,2.7-3.7,4.9-5.4,6.4-2.9,2.4-5.2-1-2.8-2.7,3-2.2,6.2-7.6,7.2-11.7.6-2.6,4.9-1.6,4.2.9-.3,1.2-.7,2.4-1.2,3.6,4.9,0,13.2,0,16.8,0,1.3,0,1.9.9,1.9,1.8s-.7,1.8-2,1.8c-1.5,0-4-.1-6.8-.1-1.2,8.3-5.8,15.4-14.7,18.4h0Z"/>
  <path d="M75,24.5c-.6-1.1-1.4-2.3-2.3-3-1.7-1.4.7-3.8,2.6-2.2,1.1.9,2.3,2.2,3.1,3.5,1.3,2.1-2.1,4-3.3,1.7h0ZM74.2,35.1c-.4-.8-.1-1.9,1-2.3,6.9-2.7,11.3-8.2,13-14.7.7-2.5,4.7-1.4,3.9,1-2.3,7.4-6.9,13.3-15,16.8-1.4.6-2.4.1-2.8-.7ZM80.6,22.4c-.4-1.2-1.2-2.4-1.9-3.3-1.5-1.6,1.3-3.7,3-1.8.9,1.1,1.8,2.5,2.5,3.9,1,2.3-2.6,3.7-3.5,1.2Z"/>
  <path d="M112.7,33.8c0,3.2-4.6,3.3-4.4.2.3-6.3.4-21.6.2-27.2,0-2.7,4.4-2.6,4.3,0,0,1.9,0,5.3-.1,9.1.2,0,.4,0,.7,0,2.3.3,7.7,1.6,9.9,3.4,2.1,1.7-.2,5.1-2.6,3.5-1.8-1.2-5.8-2.8-8-3.2,0,5.4,0,11,0,14.2h0Z"/>
  <path d="M147,35c-3.2.5-3.6-3.2-.7-3.6,3.8-.5,6.6-1.6,8.6-3.3,2.5-2.1,2.6-4.2,1.4-5.5-1.8-1.9-5-1.9-7.7-1.1-3,.9-5.6,2.4-8.4,3.6-2.8,1.2-4.4-2.4-1.8-3.4,2.6-1,6.2-2.6,9.5-3.4,3.5-.8,8.2-.9,11.1,2,3.5,3.4,2.1,7.7-1.7,10.7-2.5,2-5.7,3.3-10.2,4.1h0Z"/>
  <path d="M179.8,16.4c.4-.7.8-1.4,1.3-2,.7-.8.4-.8-.3-.6-3.1.9-2.4.9-5.2,1.9-1.3.5-2.5.9-3.7,1.2-3.6.9-4.7-3.6-1.4-4.2.9-.2,3.2-.6,4.6-.9,2-.5,5.6-1.2,9.8-2.4,4.2-1.1,7.6-2.1,11.2-2.3,2.6-.2,3.2,1.8,2.8,3-.2.7-1.1,1.4-4,1.3-2.1-.1-4.7.6-6.1,1.1-2.3.8-4.4,3.1-5.3,4.6-3.6,5.7-.9,13.9,8.4,13.6,4.3-.2,4.6,4.5.2,4.4-12.4,0-16.7-10.8-12.2-18.7h0Z"/>
  <path d="M211.5,9.8c-2.1-2.5,1.9-4.6,3.5-2.4,1.8,2.4,3.6,5.9,4.8,9.1,2.2-1.5,4.6-2.9,7.2-4.3,2.8-1.5,4.9,2.3,1.8,3.8-4.2,2-8.4,4.3-11.7,6.9-4.1,3.3-4.2,6.2-1,7.7,2.9,1.4,8.8.4,11.2-.5,3.5-1.2,4.7,3.2,1,4.2-3.2.9-10.1,1.6-14.2-.3-5.9-2.9-5.7-9.2,1-14.2.4-.3.8-.6,1.2-.9-1.1-3.1-3.1-6.9-4.9-9.1h0ZM232,11.5c-.4-.7-2.3-2.3-3.1-2.7-2-1.1,0-3.2,1.7-2.3,1,.5,3,1.8,3.8,2.8,1.4,1.8-1.3,3.9-2.4,2.2ZM236.2,8.5c-.5-.7-2.4-2.2-3.1-2.5-2-1-.2-3.2,1.6-2.4,1.1.5,3,1.7,3.8,2.7,1.4,1.8-1.1,3.9-2.4,2.2h0Z"/>
  <path d="M256.8,29.1c0-1.8.3-2.9.2-4.6-.2-4.3-6.5-.7-7.6,1.3-1,1.7-2.1,3.4-2.6,5.3-.7,3-1.6,3.2-2.5,3.3-1.4.2-3.4-.7-2.4-3,1.9-4.4,4.2-8.3,6.6-11.8s4.5-6.8,6.5-9.9c.7-1.1,1.8-2.5,2.3-3.2,1.4-2.3,5.2-.3,3.8,2.1-.3.6-.6,1-1,1.4-.3.4-.7.8-1.2,1.3-2,2.1-3.3,3.7-4.4,5.2-1.1,1.4-1.9,2.7-2.8,4-.3.4-.2.3.1,0,1.5-1.2,8.6-3.1,9.2,3.5.1,1.5-.2,2.9-.2,4.3,0,3.5,3.5,3,6,1,2.1-1.8,3-3.7,3.8-5.5,1.2-2.9,5.5-.9,4,2-1.1,2.1-2.8,4.7-5.2,6.5-4.5,3.3-12.7,4.2-12.6-3.2h0Z"/>
  <path d="M285.8,12.9c-2.5-.7-1.7-4.2,1.2-3.3,1.4.4,3.5.4,5.6-.1.4-1.3.6-2.5.8-3.9.4-2.3,4-1.9,3.9.3,0,.6-.3,1.4-.6,2.4.5-.2,1-.4,1.3-.7,1.9-1.2,4.5,1.2,1.8,3-1,.7-2.7,1.3-4.4,1.8-1.9,4.4-4.7,9.1-7.4,13.1-1.5,2.3-5.5.8-3.7-1.7,2.3-3.2,4.7-6.6,6.8-10.6-2.1.4-3.9.2-5.4-.2h0ZM292.8,34.9c-3.8-1.8-4.3-6,0-7.8,2.5-1.1,5.4-1.2,7.9-.7v-1.4c0-1,0-2-.1-2.9,0-.8,0-1.9.2-2.6.5-2.1,4.1-1.6,3.7.7-.1.6-.2,1-.2,1.8s0,1.9,0,3c0,.7.1,1.6.2,2.4,2.2.9,4,2.1,5,3.1,2.4,2.5-1,5.2-3,3-.6-.7-1.4-1.4-2.4-2-1.2,3.1-6.3,5.9-11.3,3.5h0ZM294.2,29.8c-1.1.5-1.2,1.7,0,2.3,2.5,1.2,5.8,0,6.3-2.1,0-.1,0-.3,0-.4-2.1-.7-4.3-.7-6.3.2h0ZM303.4,15.4c-2.3.1-2.4-3.1.2-3.4,2.7-.2,5.6.2,7.6,1.4,2.8,1.6.7,4.8-1.4,3.6-1.9-1.2-4-1.8-6.4-1.6h0Z"/>
  <path d="M323.9,9.8c-2.1-2.5,1.9-4.6,3.5-2.4,1.8,2.4,3.6,5.9,4.8,9.1,2.2-1.5,4.6-2.9,7.2-4.3,2.8-1.5,4.9,2.3,1.8,3.8-4.2,2-8.4,4.3-11.7,6.9-4.1,3.3-4.2,6.2-1,7.7,2.9,1.4,8.8.4,11.2-.5,3.5-1.2,4.7,3.2,1,4.2-3.2.9-10.1,1.6-14.2-.3-5.9-2.9-5.7-9.2,1-14.2.4-.3.8-.6,1.2-.9-1.1-3.1-3-6.9-4.9-9.1h0Z"/>
  <path d="M356.1,30.1c-1.5-2,1.2-4.7,3.4-2.5,3.5,3.4,10.2,3.1,16.4,1.4,3.4-.9,4.4,3.3,1.1,4.3-8.1,2.4-18,.6-20.9-3.2h0ZM360.7,14.1c-3.2.6-3.8-3.6-.1-4.1,3.9-.6,9.7-.6,13.1.1,3.5.7,2.5,4.7-.8,4.1-3.8-.8-8.2-.9-12.2-.1h0Z"/>
  <path d="M415.1,18.6c5.1,4.2,2.9,12-5.1,15.2-2.6,1-4.6,1.8-8.1,2.3-3.3.4-4.3-3.5-.8-3.9,3-.4,5.5-1,7.4-2,4.9-2.4,6.1-6.1,4.2-8.4-3.5-4.3-12.6-1.5-17.1,3.4-1.4,1.6-.7.9-1.7,2-2,2.3-6.3.7-3.8-2.4.8-1,1.1-.8,2.6-2.5,1.9-2.1,2.3-2.4,4.4-4.7s5.1-5.9,6.6-7.8c.3-.4,0-.7-.4-.5-1.9,1.1-4.1,1.8-6.2,2.2-3.3.7-4.3-3.6-.7-3.9,1.7-.2,5.5-1.1,7-1.6,2.3-.8,2.5-.9,3.6-.7,2.2.3,3.9,2.4,1.7,4.5-2.8,2.7-6.4,6.5-8.9,9,4.2-3.1,11.6-3.4,15.4-.2h0Z"/>
  <path d="M433,25.4c0-4.9,5.4-7.2,6.9-9.8.6-1.1.9-2.2.9-3.2,0-3.8-3-4.7-4.7-4.7-3.3,0-4.6,2.6-5,3.6-.2.8-1.1,1.2-2.1,1.2s-2.3-.6-2.3-1.9,2.5-6.8,9.3-6.8,9.1,3.2,9.1,8.5-.3,2.6-.8,3.9c-1.5,3.5-6.9,5.5-6.9,9s-1.2,2.3-2.3,2.3-2.1-.7-2.1-2.1h0ZM435.2,35.6c-1.6,0-2.8-1.2-2.8-2.6s1.7-2.7,2.8-2.7c1.6,0,2.8.9,2.8,2.7s-1.7,2.6-2.8,2.6Z"/>
</svg>