<?xml version="1.0" encoding="UTF-8"?>
<svg id="_レイヤー_1" xmlns="http://www.w3.org/2000/svg" version="1.1" viewBox="0 0 322.2 40">
  <!-- Generator: Adobe Illustrator 29.0.0, SVG Export Plug-In . SVG Version: 2.1.0 Build 186)  -->
  <path d="M1.9,29.9c-.6-.8-.6-2.1.5-2.8,2-1.2,4.4-3.8,5.5-5.5,1.2-1.9,4.6-.4,3.2,1.8-1,1.7-3.7,5.3-6.3,6.9-1.1.7-2.4.3-2.9-.5h0ZM5.5,17.6c-2.8.1-3.1-3.5,0-3.6,3.2-.1,6.6-.2,10-.3,0-2.1,0-3.8,0-4.9,0-2.9,4-2.6,4-.2,0,1.2,0,3-.1,5,3.2,0,6.3,0,9.3,0,3.1,0,2.9,3.8-.2,3.7s-6.1-.2-9.2-.2c0,3.2,0,6.5.1,9.2,0,1.2,0,1.9,0,3,0,3.1-2,5.4-7.9,4.5-3.7-.6-2.1-4.6.5-3.9,1.7.5,3.5.7,3.5-1.4,0-2.8,0-7.2,0-11.3-3.3,0-6.6.2-9.9.3h0ZM28.8,28.9c-1.3-1.9-4.2-4.3-6-5.3-2-1.1,0-4.1,2.3-2.8,1.8,1,5.4,3.3,7.1,5.7.7,1,.2,2.3-.7,2.8-.8.5-2,.6-2.7-.5ZM28,11.9c-2.3,0-4.2-1.8-4.2-4s1.9-4.1,4.2-4.1,4.3,1.8,4.3,4.1-1.9,4-4.3,4ZM28,6c-1.1,0-2.1.9-2.1,1.9s1,1.9,2.1,1.9,2.1-.9,2.1-1.9-1-1.9-2.1-1.9Z"/>
  <path d="M44.3,34.8c-3.9,1.3-4.5-3-1.6-3.8,7-1.9,11-7.8,12-14.6-2.8,0-5.5,0-7.5,0-1.7,2.7-3.7,4.9-5.4,6.4-2.9,2.4-5.2-1-2.8-2.7,3.1-2.2,6.2-7.6,7.2-11.7.6-2.6,4.9-1.6,4.2.9-.3,1.2-.7,2.4-1.2,3.6,4.9,0,13.2,0,16.8,0,1.3,0,1.9.9,1.9,1.8s-.7,1.8-2,1.8c-1.5,0-4-.1-6.8-.1-1.2,8.3-5.8,15.4-14.7,18.4h0Z"/>
  <path d="M74.4,24.5c-.6-1.1-1.4-2.3-2.3-3-1.7-1.4.7-3.8,2.6-2.2,1.1.9,2.3,2.2,3.1,3.5,1.3,2.1-2.1,4-3.3,1.7h0ZM73.6,35.1c-.4-.8-.1-1.9,1-2.3,6.9-2.7,11.3-8.2,13-14.7.7-2.5,4.7-1.4,3.9,1-2.3,7.4-6.9,13.3-15,16.8-1.4.6-2.4.1-2.8-.7ZM79.9,22.4c-.4-1.2-1.2-2.4-1.9-3.3-1.5-1.6,1.3-3.7,3-1.8.9,1.1,1.8,2.5,2.5,3.9,1,2.3-2.6,3.7-3.5,1.2Z"/>
  <path d="M112.1,33.8c0,3.2-4.6,3.3-4.4.2.3-6.3.4-21.6.2-27.2,0-2.7,4.4-2.6,4.3,0,0,1.9,0,5.3-.1,9.1.2,0,.4,0,.7,0,2.3.3,7.7,1.6,9.9,3.4,2.1,1.7-.2,5.1-2.6,3.5-1.8-1.2-5.9-2.8-8-3.2,0,5.4,0,11,0,14.2h0Z"/>
  <path d="M152.5,14.1c-.7,4.9-4.4,12.3-8.3,15.8-3.2,2.8-6.6,1.2-8.4-2.1-2.6-4.8.2-12.1,5.7-15.7,5.1-3.3,12.6-3.9,17.8-.9,6.4,3.6,7.4,10.8,3.8,16.4-1.9,3-6,5.4-10.1,6.4-3.6.9-4.9-3-1.4-3.8,3.1-.7,6.3-2.3,7.7-4.4,2.9-4.4,1.8-9.5-2.3-11.9-1.6-1-3.3-1.4-5.1-1.6.4.4.7,1,.6,1.8h0ZM143.3,14.9c-3.8,2.8-5.9,8-4.2,11,.6,1.1,1.7,1.7,2.7.9,3.1-2.6,6-8.8,6.4-13,0-.5.2-.9.4-1.2-1.9.4-3.8,1.2-5.3,2.3Z"/>
  <path d="M197.6,18c0,7.4-3.3,13.7-10.9,17.8-3.3,1.8-4.9-1.8-2.4-3.1,6.4-3.3,9.2-8.3,9.2-14.5v-.9c-2.2,0-4.4,0-6.6,0,0,2.2,0,4.3,0,5.8,0,1.3-1,2-2.1,2s-2.1-.7-2.1-2c0-1.6.1-3.6.1-5.8-2.6,0-5.1.2-7.4.3-3.2.2-3.1-3.6-.2-3.6,2.5,0,5.1-.1,7.7-.2,0-1.8,0-3.6-.2-4.9-.1-2.7,3.9-3,4.1-.2,0,1.3.1,3,.2,4.9,2.2,0,4.4,0,6.6-.1,0-2,0-3.9,0-5-.2-3.2,4.2-3,4.1,0,0,1.6,0,3.3,0,5,2.6,0,5.3,0,7.7,0,3.9,0,3,3.9.1,3.8-2.6,0-5.1-.1-7.8-.1v.7h0Z"/>
  <path d="M217,21.4c-1.5,0-2.2-.9-2.2-1.9s.8-2,2.2-2h25.9c1.4,0,2.1,1,2.1,2s-.7,1.9-2.1,1.9h-25.9Z"/>
  <path d="M260.8,26.5c0,1.9.8,2.9,3.3,3.2,2.4.3,9.1,0,12-1,3.1-1,4.9,3.2.9,4.2-3.7.9-10,1-14.3.5-3.6-.4-5.8-2.6-5.9-5.9,0-3.9.2-12.6.3-17.2,0-2.7,4.2-2.2,4.2.1,0,2.1-.1,5-.2,7.9,3.2-.6,9.9-2.3,13-3.6,3-1.2,5.1,2.7,1.5,3.9-3.9,1.2-9.9,3-14.6,3.5,0,1.7,0,3.3-.1,4.4h0ZM275.7,11.9c-2.1-.8-.5-3.2,1.4-2.5,1.1.4,3.2,1.4,4.1,2.4,1.6,1.6-.8,4-2.1,2.5-.5-.6-2.5-2-3.4-2.3h0ZM279.4,8.5c-2.1-.8-.6-3.1,1.3-2.5,1.1.3,3.2,1.3,4.2,2.2,1.6,1.6-.7,4-2.1,2.5-.6-.6-2.6-1.9-3.4-2.2Z"/>
  <path d="M293,33.5c-3,1-4.4-2.8-1.3-3.8,7.5-2.5,14-8.7,17.3-14.5.4-.7.2-1.3-.7-1.3-2.6,0-8.3.2-11.9.2-2.5,0-2.6-3.7,0-3.8,3-.1,9.1-.2,13.2-.2s5.8,2.2,4.2,4.9c-1.4,2.3-2.9,4.5-4.6,6.6,3.4,2,8.6,5.2,10.5,7.7,1.6,2.2-1.4,5.2-3.4,2.9-2-2.4-6.3-5.9-9.6-7.8-3.6,3.8-8.1,7-13.7,9Z"/>
</svg>