<?xml version="1.0" encoding="UTF-8"?>
<svg id="_レイヤー_1" xmlns="http://www.w3.org/2000/svg" version="1.1" viewBox="0 0 455.4 40">
  <!-- Generator: Adobe Illustrator 29.0.0, SVG Export Plug-In . SVG Version: 2.1.0 Build 186)  -->
  <path d="M2.2,29.9c-.6-.8-.6-2,.5-2.7,2-1.2,4.4-3.9,5.5-5.6,1.1-1.9,4.6-.4,3.2,1.9-1,1.7-3.7,5.3-6.3,6.9-1.1.7-2.4.3-2.9-.5h0ZM5.9,17.5c-2.8.1-3.1-3.5,0-3.6,3.2-.1,6.6-.2,10-.2,0-2.1,0-3.8,0-4.9,0-2.9,4-2.6,4-.2,0,1.2,0,3-.1,5,3.2,0,6.3,0,9.4,0,3.1,0,2.9,3.8-.2,3.7-3-.2-6.1-.2-9.2-.2,0,3.2,0,6.5.1,9.2,0,1.2,0,1.8,0,2.9,0,3.1-2,5.4-7.9,4.4-3.7-.6-2.1-4.6.5-3.9,1.7.5,3.5.8,3.5-1.4,0-2.8,0-7.2,0-11.4-3.3,0-6.6.2-9.9.3h0ZM29.2,28.9c-1.3-1.9-4.2-4.2-6-5.3-2-1.1,0-4.1,2.3-2.8,1.8,1,5.4,3.3,7.1,5.7.7,1,.2,2.2-.7,2.8-.8.5-2,.6-2.7-.5h0Z"/>
  <path d="M46.6,34.9c-4,1.3-4.7-2.8-1.8-3.6,6.5-1.7,10.2-6.5,10.5-12.3-4.6,0-9.1.2-12,.3-1.4,0-2.1-.8-2.1-1.8s.7-1.9,2.3-1.9c5.8,0,18.8-.2,25.5-.2,1.4,0,2.1.9,2,1.9s-.8,1.8-2.3,1.8c-2.3,0-5.6-.1-9.3,0-.4,7.1-4.8,13.2-12.9,15.9h0ZM64.3,11.2c-5.7,0-11.9.2-16.3.2s-2.9-3.7,0-3.6c5.2,0,10.7-.1,16.1-.2,1.4,0,2.1.9,2.1,1.8s-.7,1.8-1.9,1.8h0Z"/>
  <path d="M75.1,29.4c6.1-2.6,9.8-8.6,9.4-16-.2-3,4.2-2.8,4.2-.3.3,7.4-3.2,15.5-11.3,19.7-3.2,1.7-5.4-2.1-2.3-3.4h0ZM96.7,30.8c-2.7,1.2-5.6.2-5.3-3.1.3-3.5.6-12.8.6-15.1s4.2-2.8,4.1,0c0,1.5-.4,11.8-.5,13.1,0,.9.4.9,1.2.5,3.5-1.9,6.8-5.5,9.2-9.8,1.5-2.6,5.2-.5,3.8,2-2.8,4.8-7.4,9.7-13.1,12.4h0Z"/>
  <path d="M134.6,14.1c-.7,4.9-4.4,12.3-8.3,15.8-3.2,2.8-6.6,1.2-8.4-2.1-2.6-4.8.2-12.1,5.7-15.7,5.1-3.3,12.6-3.9,17.8-.9,6.4,3.6,7.4,10.8,3.8,16.4-1.9,3-6,5.4-10.1,6.4-3.6.9-4.9-3-1.4-3.8,3.1-.7,6.3-2.3,7.7-4.4,2.9-4.4,1.8-9.5-2.3-11.9-1.6-1-3.3-1.4-5.1-1.6.4.4.7,1,.6,1.8h0ZM125.4,14.9c-3.8,2.8-5.9,8-4.2,11,.6,1.1,1.7,1.7,2.7.9,3.1-2.6,6-8.8,6.4-13,0-.5.2-.9.4-1.2-1.9.4-3.8,1.2-5.3,2.3Z"/>
  <path d="M157.4,30.1c-1.5-2,1.2-4.7,3.4-2.5,3.5,3.4,10.2,3.1,16.4,1.4,3.4-.9,4.4,3.3,1.1,4.3-8.1,2.4-18,.6-20.9-3.2h0ZM162,14.1c-3.2.6-3.8-3.6-.1-4.1,3.9-.6,9.7-.6,13.1.1,3.5.7,2.6,4.7-.8,4.1-3.8-.8-8.2-.9-12.2-.1h0ZM179,10.3c-.4-.7-2.3-2.3-3.1-2.7-2-1,0-3.2,1.7-2.3,1,.5,3,1.8,3.8,2.8,1.4,1.8-1.3,3.9-2.4,2.2ZM180.6,5.2c-2-1-.2-3.2,1.7-2.4,1.1.5,3,1.7,3.8,2.7,1.4,1.8-1.1,3.9-2.4,2.3-.5-.7-2.4-2.2-3.2-2.5h0Z"/>
  <path d="M204.3,35.2c0,1.1-1,1.6-2,1.6s-2-.5-2-1.6h0s.2-12.8.2-12.8c-1.5,2.2-3.3,4.3-4.9,5.9-.5.5-1.1.7-1.6.7-1.1,0-2.1-.9-2.1-1.8s.2-.9.7-1.3c2.4-2,6-6,8-9.7v-.4s-5.8.1-5.8.1h0c-1.2,0-1.8-.8-1.8-1.7s.6-1.7,1.9-1.7h5.7v-3.8c-.2,0-3.8.4-4.6.4-1.3,0-2-.9-2-1.7s.6-1.6,1.8-1.7c4-.2,7.4-.7,11-2,.2,0,.4-.1.7-.1,1.1,0,1.9.9,1.9,1.8,0,1.5-2.1,2-4.9,2.6,0,.9,0,2.5,0,4.4h4.9c1.2,0,1.9.9,1.9,1.7s-.6,1.7-1.8,1.7h-5c0,0,0,2.4,0,2.4.3-.2.6-.2.9-.2,1.2,0,4.1,2,5.2,3,.4.4.6.9.6,1.3,0,1-.9,1.9-1.9,1.9s-.9-.2-1.4-.7c-.9-1-2.4-2.2-3.5-2.9,0,5.9.2,14.4.2,14.4h0s0,0,0,0ZM213.3,7.1c0-1.2.9-1.8,1.9-1.8s1.9.6,1.9,1.8v19.9c0,1.1-1,1.7-1.9,1.7s-1.9-.5-1.9-1.7V7.1ZM226.1,31.4h0c0,2.4-1.6,5.2-6.7,5.2s-4.8-.9-4.8-2.2.7-2,1.8-2,.3,0,.4,0c.8.2,1.9.4,2.8.4s2.3-.4,2.4-2.1c0-1.4,0-12.3,0-19.5v-6.2c0-1.2,1-1.8,2-1.8s2,.6,2,1.8v26.3c0,0,0,0,0,0Z"/>
  <path d="M262.7,24.6h-9.2v9.7c0,1.2-1,1.8-2,1.8s-2-.6-2-1.8v-9.7h-8.7c-.5,5.1-2.4,12.1-5.6,12.1s-2.1-.8-2.1-1.8.1-.7.4-1.1c3.2-4.1,3.8-11.2,3.8-17.5s0-5.3-.1-7.5h0c0-3.4,1.6-4.8,5.4-4.9,3.5,0,6.8-.1,10.1-.1s5.8,0,9.1.1c2.4,0,4.9,1.6,4.9,4.3.1,5.7,0,13.5.1,17.8v5.3c0,0,0,0,0,0,0,2.7-1.7,5.2-6.7,5.2s-4.8-.3-4.8-2.3.6-1.8,1.8-1.8.2,0,.4,0c1,.2,1.9.3,2.6.3,2.1,0,2.7-.8,2.7-2.1v-6.1h0ZM249.6,15.9h-8.4c0,1.7,0,3.5-.1,5.3h8.4v-5.3ZM249.6,7.1c-2.1,0-4.2,0-6.4,0-1.4,0-2,.8-2,1.9v3.5h8.4v-5.5ZM262.7,12.6c0-1.1,0-2.2,0-3.2,0-1.5-.9-2.2-2.4-2.3-2.2,0-4.5,0-6.7,0v5.5h9.1ZM262.7,15.9h-9.2v5.3h9.2v-5.3h0Z"/>
  <path d="M278.7,33.5c-3.3-7.7,0-19.2.7-23.9.5-2.9,4.5-2,4,.2-.7,3.2-3.1,12.3-2.1,15.9.1.5.3.4.5,0,0-.2.5-1,.7-1.2,1.3-1.9,3.8,0,2.9,1.5-1.5,2.5-2.2,4.3-2.4,5.5-.2,1,.2,2.3-.8,3.1s-2.5.7-3.4-1.2h0ZM289.7,30.7c-1.7-1.8.8-4.5,2.9-2.7,2.2,1.9,7.2,1.3,10.4.7,3.3-.7,3.5,3.5.8,4.1-4.4,1-11.2.9-14.1-2.1h0ZM292.1,15.2c-2.3.6-3.6-2.9-.6-3.6,3.7-.9,8-.9,10.8-.2,2.9.7,2.1,4.3-.7,3.7-3-.6-6.1-.7-9.5.1Z"/>
  <path d="M325.7,30.5c-1.5,1-3,1.9-4.5,2.6-2.5,1.2-6.5.6-6-4.6.3-3.8,3.6-8.1,7.4-10.3.5-.3,1.1-.6,1.7-.9.1-1.5.3-3,.5-4.6-2,.1-3.8,0-5.1-.4-2.4-.7-1.6-4.2,1.1-3.4,1.1.4,2.7.4,4.5.3.2-1.1.4-2.3.5-3.5.5-2.9,4.5-2.3,4,0-.2,1-.4,1.9-.5,2.8,1.9-.4,3.8-.9,5.6-1.5,2.4-.9,4.2,2.5,1,3.5-2.3.7-4.7,1.3-7.1,1.7-.2,1.2-.4,2.4-.5,3.5,1.4-.5,2.9-.8,4.3-.9h.5c.3-2.4,4.1-1.6,3.9.2,12,2.1,11.4,16.4-2.6,20.8-3.7,1.2-4.7-2.5-1.4-3.5,10.2-3.2,10.7-12.4,3.2-14.1-1.4,3.7-4,7-7.1,9.7.1.3.3.5.5.8,1.4,2.3-2,4.8-3.5,2v-.2c-.1,0-.1,0-.1,0ZM324.1,20.9c-3.2,2.3-5.1,5-5.3,7.3-.1,1.6,1,1.7,2.1,1.2,1.2-.7,2.5-1.4,3.7-2.3-.4-1.8-.5-3.9-.5-6.2h0ZM332,18c-1.2.1-2.8.5-4.2,1-.2,2-.1,3.7,0,5.3,1.9-1.8,3.4-4,4.3-6.4h-.1Z"/>
  <path d="M357.4,33.5c-1.2,2.6-5.6,1.5-3.9-1.8,1.8-3.4,4.7-9.4,7.2-16.9-2.2.2-4.3.2-6-.6-2.1-.9-1.7-4.4,1.4-3.3,1.7.6,3.8.6,5.7.2.2-1.4,0-2.5,0-4.2-.2-2.2,3.7-2.3,4.1-.2.2,1,.2,2,0,3.1.6-.3,1.1-.6,1.6-.8,2.1-1.3,4.7,1.9,1.6,3.3-1.1.6-2.6,1.1-4.2,1.6-2.6,8.5-5.5,15.3-7.5,19.6h0ZM367.5,31.7c-1.8-1.9.8-5,2.9-2.9,2.1,2,4.6,1.8,9.4,1.4,3-.2,3.2,3.5.5,4-6,1.1-11.1-.7-12.9-2.6ZM372.1,18.1c-2.1.7-3.4-2.5-.7-3.4,2.1-.7,5.9-1.2,9.9.2,2.8.9,1.6,4.4-1,3.6-2.3-.7-6-1.2-8.2-.4h0Z"/>
  <path d="M401.5,35c-3.2.5-3.6-3.2-.7-3.6,3.8-.5,6.6-1.6,8.6-3.3,2.5-2.1,2.6-4.2,1.4-5.5-1.8-1.9-5-1.9-7.7-1.1-3,.9-5.6,2.4-8.4,3.6-2.8,1.2-4.5-2.4-1.8-3.4,2.6-1,6.2-2.6,9.5-3.4,3.5-.8,8.2-.9,11.1,2,3.5,3.4,2.1,7.7-1.7,10.7-2.5,2-5.7,3.3-10.2,4.1h0Z"/>
  <path d="M434.3,16.4c.4-.7.8-1.4,1.3-2,.7-.8.5-.8-.3-.6-3.1.9-2.4.9-5.2,1.9-1.3.5-2.5.9-3.7,1.2-3.6.9-4.7-3.6-1.4-4.2.9-.2,3.2-.6,4.6-.9,2-.5,5.6-1.2,9.8-2.4,4.2-1.1,7.6-2.1,11.2-2.3,2.5-.2,3.2,1.8,2.8,3-.2.7-1.1,1.4-4,1.3-2.1-.1-4.7.6-6.1,1.1-2.3.8-4.4,3.1-5.3,4.6-3.6,5.7-.9,13.9,8.4,13.6,4.3-.2,4.6,4.5.2,4.4-12.4,0-16.7-10.8-12.2-18.7h0Z"/>
</svg>