<?xml version="1.0" encoding="UTF-8"?>
<svg id="_レイヤー_1" xmlns="http://www.w3.org/2000/svg" version="1.1" viewBox="0 0 133 40">
  <!-- Generator: Adobe Illustrator 29.0.0, SVG Export Plug-In . SVG Version: 2.1.0 Build 186)  -->
  <path d="M17.3,35.4c0,1-1,1.6-2,1.6s-2-.5-2-1.6h0s.2-11.8.2-11.8c-3.8,5.8-5.1,6-5.8,6-1.1,0-2-.8-2-1.8s.2-.9.7-1.2c2.2-1.8,5.2-5.1,7.1-8.4h0c0-.1-4.6,0-4.6,0h0c-1.2,0-1.8-.8-1.8-1.6s.6-1.8,1.8-1.8h4.6V4.4c-.1,0-.1,0-.1,0,0-1.1,1-1.7,2-1.7s2,.6,2,1.7h0s0,3.3-.1,7.1c0-.1.1-.2.2-.4.7-.9,1.8-2.6,2.4-3.8.3-.6.8-.8,1.3-.8.9,0,1.9.7,1.9,1.7s-1.6,3.1-3,4.6c-.4.4-.8.6-1.3.6-.7,0-1.3-.4-1.5-.9v2.5s4.3,0,4.3,0c1.1,0,1.7.8,1.7,1.6s-.6,1.7-1.6,1.7h-4.4c0,0,0,1.9,0,1.9.2-.1.5-.2.8-.2,1,0,4.8,2.5,4.8,4s-.9,1.9-1.9,1.9-.9-.2-1.3-.7c-.7-.9-1.6-1.9-2.4-2.5,0,5.7.2,12.8.2,12.8h0s0,0,0,0ZM9.9,12.4c-.6-1.3-1.8-3-2.2-3.5-.2-.3-.4-.6-.4-.8,0-.8,1-1.4,1.9-1.4,1.9,0,3.9,3.9,3.9,4.8s-.9,1.8-1.9,1.8-1.1-.3-1.4-.9h0ZM34.3,26.3l-10.5,2.8c-.2,0-.4,0-.7,0-1.1,0-1.7-.8-1.7-1.7s.4-1.4,1.4-1.7l11.4-3V4.3c0-1.1.9-1.7,1.9-1.7s2,.6,2,1.7v17.4c0,0,3.8-1,3.8-1,.2,0,.4,0,.6,0,1.1,0,1.8.9,1.8,1.8s-.4,1.3-1.3,1.6l-4.9,1.3v10.1c0,1-.9,1.5-1.9,1.5s-2-.5-2-1.5v-9c0,0,0,0,0,0ZM28.9,20.2c-1.3-1-3.1-2-4-2.5-.7-.3-.9-.8-.9-1.2,0-.8.9-1.6,2.1-1.6s4.4,1.7,5.2,2.3c.6.5.8,1,.8,1.6,0,1-.8,1.9-1.8,1.9s-.9-.2-1.3-.5h0ZM29.2,12.3c-1.1-1.2-2.8-2.3-3.8-2.8-.5-.3-.7-.7-.7-1.1,0-.8.9-1.7,2-1.7s4.5,2.2,5.1,2.8c.4.5.6,1,.6,1.5,0,1-.8,1.9-1.9,1.9s-.9-.2-1.4-.7h0Z"/>
  <path d="M51.8,35.2c-1.2,0-1.9-.8-1.9-1.7s.7-1.7,1.9-1.7h13.1c0,.1,0-8.2,0-8.2h-9.8c-1.2,0-1.9-.9-1.9-1.7s.7-1.7,1.9-1.7h9.8v-3.4h-4.4c-1.3,0-1.9-.8-1.9-1.7s.1-.7.4-1c-6,5.1-7.5,5.3-8.1,5.3-1.3,0-2.2-1-2.2-2s.4-1.3,1.3-1.8c4.8-2.3,10-7.1,13.1-11,1-1.2,2.3-1.8,3.7-1.8s2.7.6,3.9,1.8c4,4.1,8.6,7.4,13.5,9.8.8.4,1.1,1,1.1,1.6,0,1.1-1,2.2-2.4,2.2-2.2,0-10.1-6.3-14.6-11.1-.4-.5-.9-.7-1.2-.7s-.8.2-1.1.7c-1.7,2.1-4,4.4-6.5,6.5.3-.2.7-.3,1.1-.3h13.3c1.2,0,1.9.9,1.9,1.7s-.6,1.7-1.9,1.7h-4.9v3.4h10c1.2,0,1.9.9,1.9,1.7s-.6,1.7-1.9,1.7h-10v8.3h1.4c1-1.3,2.1-4.2,2.6-5.8.3-.9,1-1.2,1.8-1.2,1.1,0,2.3.8,2.3,1.8s-2.2,4.3-2.8,5.1h8c1.1,0,1.7.8,1.7,1.6s-.6,1.7-1.7,1.7h-30.4ZM60.2,31.4c-.5,0-1.1-.2-1.4-.9-.7-1.4-1.4-2-2.4-3.2-.2-.2-.3-.5-.3-.7,0-.8,1.1-1.5,2.1-1.5,1.8,0,4.1,3.4,4.1,4.4s-1.1,1.8-2.1,1.8Z"/>
  <path d="M112,20.5c.4,1.9,1.2,3.5,2.3,5,2.2-1,4.2-2.3,6.3-3.8.4-.3.8-.4,1.2-.4,1.1,0,2.1.9,2.1,2s-.3,1.1-1.1,1.6c-1.9,1.1-4.1,2.2-6.3,3.1,2.3,2,5.4,3.4,9,4.3,1,.2,1.4,1,1.4,1.8s-.8,2.2-2.1,2.2-12.7-2.3-16.3-14.7c-.9.7-1.8,1.4-2.7,2.1v7.1c1.4-.4,2.7-.9,3.8-1.3.3-.1.7-.2.9-.2,1,0,1.8.8,1.8,1.6s-.4,1.4-1.6,1.9c-6.3,2.5-14.2,4.1-15.2,4.1-1.4,0-2.2-.9-2.2-1.8s.7-1.8,2-2c2.3-.3,4.6-.8,6.7-1.3v-5.7c-2.2,1.2-8.2,4.2-9.8,4.2s-2-.9-2-1.8.4-1.4,1.4-1.7c5-1.6,8.9-3.3,12.9-6.2h-11.1c-1.2,0-1.8-.8-1.8-1.6s.6-1.6,1.8-1.6h13.3s0-2.4,0-2.4h-9.2c-1.1,0-1.7-.7-1.7-1.5s.6-1.5,1.7-1.5h9.2v-2.3h-11.5c-1.1,0-1.8-.7-1.8-1.5s.6-1.6,1.8-1.6h11.5v-2.3c0-1.1,1-1.6,2-1.6s2.1.5,2.1,1.6v2.3h11.7c1.1,0,1.7.8,1.7,1.6s-.6,1.6-1.7,1.6h-11.7s0,2.3,0,2.3h9.3c1.1,0,1.6.8,1.6,1.5s-.5,1.5-1.6,1.5h-9.4s0,2.4,0,2.4h13.5c1.1,0,1.7.7,1.7,1.6s-.6,1.6-1.7,1.6h-12.1s0,0,0,0Z"/>
</svg>