<?xml version="1.0" encoding="UTF-8"?>
<svg id="_レイヤー_1" xmlns="http://www.w3.org/2000/svg" version="1.1" viewBox="0 0 244.3 40">
  <!-- Generator: Adobe Illustrator 29.0.0, SVG Export Plug-In . SVG Version: 2.1.0 Build 186)  -->
  <path d="M14.2,29.8c.3,5.6-4.9,5.5-8.3,3.9-4.9-2.3-3.5-5-1.4-7.3,1.3-1.3,3.4-2.8,5.8-4.1,0-1.6,0-3.3,0-4.9-1.7.3-3.4.4-4.9.2-3.1-.4-2.6-4.2.9-3.6,1,.2,2.6,0,4.2-.4,0-1.8,0-3.1-.2-4.6-.2-2.9,4.4-2.8,4.2,0,0,.9-.1,2.1-.2,3.3.6-.3,1.2-.6,1.7-.9,2.2-1.4,4.7,1.7,1.8,3.3-1.2.7-2.6,1.3-3.9,1.8,0,1.2,0,2.6,0,4.1,1.2-.5,2.3-.9,3.5-1.2,3.5-1,7-.7,9.1,0,6.8,2.2,5.7,7.5,3.6,10.4-2.7,3.7-8.4,4.9-13.2,2.3-2.3-1.3-.7-4.5,1.8-3.3,3.2,1.5,5.8,1.5,7.8-1,1-1.2,2.1-4-1.4-5.3-1.6-.6-3.8-.7-6.7,0-1.5.3-2.9.9-4.3,1.5,0,2.1.2,4.1.3,5.8h0ZM7.3,28.5c-.9.9-.9,1.9,0,2.3,1.8.8,3,.7,3-.8,0-1,0-2.5,0-4.1-1.2.8-2.2,1.7-3.1,2.6h0ZM30.6,16.2c-1.1-.9-3.3-1.8-5.4-1.6-2.5.3-3.2-3.2-.2-3.4s7.1.7,8.6,2.2c1,1,.7,2.1,0,2.8-.7.7-1.9.9-3,0Z"/>
  <path d="M43.3,36.9c-1,0-2-.5-2-1.6h0c.3-7.2.2-19.5.3-28,0-3.8,2.8-3.8,7.1-3.8s3.2,0,4,0c2.1,0,3.6,1.3,3.7,3.1,0,1.4,0,2.8,0,4.3,0,5,0,6-8.2,6s-2.1,0-2.8,0v3.5c0,4.2,0,9.5-.2,15,0,1.1-1,1.7-2,1.7h0ZM52.9,8.9c0-.5,0-.9,0-1.3,0-1.1-.3-1.2-3.6-1.2s-3.7.1-3.8,1.5c0,.3,0,.7,0,1h7.4ZM45.4,11.5v2.5c.6,0,1.8,0,3.1,0,4,0,4.3-.2,4.3-1.2,0-.4,0-.8,0-1.3h-7.4ZM61.6,31.5c-.9,0-2.3.1-3.6.1-6.8,0-8,0-8-5.7s0-2.2,0-3.3c.1-2,1.6-3.4,3.8-3.5,1,0,2.5,0,4,0s3,0,3.9,0c2,0,3.8,1.5,3.8,3.5,0,1,0,2.1,0,3.2s0,1.4,0,2c0,2-1.4,3.5-3.9,3.7h0ZM61.9,24.5c0-2.5-.2-2.5-4.1-2.5s-4,.1-4,3,0,1.6,0,2.2c0,1.2,1.1,1.2,4,1.2s1.9,0,2.4,0c1.6-.1,1.6-.7,1.6-3.9h0ZM67.8,16.8c-4.9,0-8.3,0-8.4-3.4,0-.8,0-1.6,0-2.5,0-1.4,0-2.9,0-4.3,0-1.8,1.5-3,3.6-3.1.8,0,2.5,0,4.2,0s2.4,0,3.1,0c3.1.2,4.3,1.7,4.3,3.5v2.9c0,5.8,0,11.9,0,16.8s0,3.5,0,4.8c0,2.8-1.4,5.2-6.1,5.2s-4.4-.3-4.4-2.1.6-1.7,1.6-1.7.2,0,.3,0c.8.1,1.5.2,2.2.2,1.4,0,2.4-.5,2.4-2.4,0-1.6,0-3.2,0-4.9,0-2.6,0-5.2,0-7.6v-1.6c-.7,0-1.8,0-3,0h0ZM70.7,8.9c0-2.5,0-2.5-3.9-2.5s-3.8,0-3.8,1.2c0,.4,0,.8,0,1.3h7.7,0ZM70.8,11.5h-7.8c0,.5,0,.9,0,1.3,0,1.1.2,1.2,4.5,1.2s2.7,0,3.2,0v-2.5h0Z"/>
  <path d="M88.5,30.1c-3-3-4.3-7.6-4.6-12.5-.2-2.2-.2-2.9-.2-4.3,0-2.5,4.1-3,4.2,0,0,1.5,0,1.6,0,3.4.2,4.1.9,8,3.2,10.1,1.1,1,1.6,1.1,2.5,0,.5-.7,1.1-1.7,1.4-2.3,1.1-2.3,4.5-.6,3.8,1.4-.4,1.1-1.1,2.3-1.6,3-2.6,4.1-6.3,3.7-8.6,1.4h0ZM110.8,23.2c-.7-3.1-2.4-6.1-4.6-7.6-2-1.3.2-4.2,2.7-2.4,2.9,2.1,5.8,5.7,6.2,9.1.3,2.9-3.8,3.6-4.3.9h0Z"/>
  <path d="M154.9,19.1c-.4,0-.9-.2-1.4-.4-3.7-2.3-9-7-12.6-10.8-.4-.5-.8-.8-1.2-.8s-.7.3-1.1.8c-3.2,3.9-8.8,9-12.6,11.7-.7.5-1.3.7-1.9.7-1.3,0-2.3-1-2.3-2s.3-1.2,1.1-1.7c4.4-2.5,9.8-7.6,12.8-11.4,1-1.2,2.3-1.8,3.7-1.8s2.8.6,3.9,1.8c3.8,3.9,8.4,7.5,13.1,10.2.7.4.9.9.9,1.4,0,1.1-1.1,2.3-2.6,2.3h0ZM146.9,35.5c-2.4,0-4.8.1-7.1.1s-4.6,0-6.9-.1c-3-.1-4.5-1.7-4.6-4,0-.7,0-1.5,0-2.3s0-2.2,0-3.1c0-1.8,1.3-3.7,4.6-3.9,1.7,0,3.8,0,6.1,0s5.6,0,8.3,0c2.5,0,4.2,1.8,4.4,3.5,0,.8,0,1.8,0,2.8s0,2,0,3c-.1,2.1-1.8,3.9-4.6,4h0ZM133.1,17.9c-1.3,0-1.9-.9-1.9-1.7s.6-1.7,1.9-1.7h13.8c1.3,0,1.9.9,1.9,1.7s-.6,1.7-1.9,1.7h-13.8ZM147.5,29.1c0-2.9,0-3.6-2-3.7-1.5,0-3.3,0-5.1,0s-4.5,0-6.4,0c-1.9,0-1.9,1.2-1.9,3.4s.4,3.3,2,3.3c1.8,0,3.7,0,5.7,0s4,0,5.9,0c1.9,0,1.9-1.3,1.9-3.1h0Z"/>
  <path d="M171.2,28.5c-.6.9-1.2,2-1.9,3.2-1.7,2.8-5.6.6-3.8-2,.5-.8.9-1.2,1.2-1.6,1.9-2.6,4.2-6.5,5.5-9.5v-.9s-.2,0-.5,0c-1.1.5-2,1.1-3,1.7-3,1.8-4.3-2.1-2-3.2,1.5-.7,3.8-1.7,5.9-2.5.3-2.9.5-5.3.7-7,.2-2.7,4.4-2.2,4,.1-.2,1.4-.5,3.3-.8,5.6,1.6,0,2.7,1.9.9,4.4-.2.3-.8,1.4-1.6,2.8v.2c1.2-.9,2.4-1.6,3.5-2.1,7.3-3.7,13.9-2.4,16.8.8,3,3.2,2.3,8.5-3.9,12.7-1.5,1-3.9,2.2-5.9,2.8-2.7.9-4.6-2.9-1.3-4,1.9-.7,3.3-1.2,4.4-1.9,4.4-2.8,4.9-5.8,3-7.6-1.9-1.8-6.1-2.3-11.8.4-2.1,1-3.8,2.1-5.2,3.3-.2,3.5,0,6.8.3,9.3.2,1.4-.8,2.3-1.9,2.5s-2.3-.5-2.5-2.1c-.2-1.4-.2-3.4,0-5.8l-.2.4h0Z"/>
  <path d="M213.8,21.6c-3.6,1.1-5.2,1.6-6.4,1.9-3.2.9-4.4-3.2-1-4,1.9-.4,4.9-1.2,6.7-1.6l1.1-.2v-.5c0-2.3-.2-3.9-.3-5.5-.1-2.7,4.3-2.9,4.3-.2,0,1.2,0,3-.1,4.9v.5c2.7-.5,6.1-1.2,9.5-1.8,0-1.2,0-2.3,0-3.2s0-1.2,0-1.6c0-.3,0-.7,0-1.5,0-2.4,4.1-2.7,4.1,0s0,2.5-.2,3.6c0,.7,0,1.4-.1,2.2.4,0,.7-.1,1.1-.2,2.4-.3,4.6-.6,6.8-.4,3.4.2,2.7,4-.6,3.8-2.1-.1-3.7,0-5.8,0-.6,0-1.1.1-1.7.2,0,.7-.2,1.4-.2,2-.4,2.6-1.2,5.1-3.2,6.3-1.6,1-3.7,1.1-5.1-.6-.6-.7-1.1-1.3-1.6-2.1-1.1-1.7,1.1-3.6,2.8-1.6,1.2,1.5,1.9,1.3,2.5.5.7-1,1-2.5,1.2-4.1-3.4.5-6.6,1.2-9.4,1.9,0,1.8,0,3.7.2,5.1.3,4.2,1.6,5.5,5.1,5.6,2.5,0,4.3-.5,6.7-1,3.1-.7,4.1,3,1.1,3.8-2.8.7-6.1.9-8.5.7-5.4-.5-7.4-3-8-8.3-.2-1.4-.3-3.2-.4-4.8l-.7.2h0Z"/>
</svg>