<svg xmlns="http://www.w3.org/2000/svg" xmlns:xlink="http://www.w3.org/1999/xlink" width="180" height="180" viewBox="0 0 180 180">
  <defs>
    <clipPath id="clip-path">
      <rect id="長方形_146" data-name="長方形 146" width="91.843" height="87.033" fill="none"/>
    </clipPath>
  </defs>
  <g id="グループ_510" data-name="グループ 510" transform="translate(-1004 -5438)">
    <circle id="楕円形_13" data-name="楕円形 13" cx="90" cy="90" r="90" transform="translate(1004 5438)" fill="#ffee7d"/>
    <g id="グループ_460" data-name="グループ 460" transform="translate(1048 5484)">
      <g id="グループ_459" data-name="グループ 459" transform="translate(0 0)" clip-path="url(#clip-path)">
        <path id="パス_856" data-name="パス 856" d="M45.7,16.4c19.122,0,35.408,5.206,41.813,12.521A11.713,11.713,0,0,0,90.752,21.2c.085-5.073-4.39-10.5-12.639-14.575C69.949,2.574,58.428-.009,45.693,0,32.96-.009,21.442,2.574,13.273,6.63a29.544,29.544,0,0,0-9.434,6.9l-.018.02A11.65,11.65,0,0,0,.638,21.2a11.7,11.7,0,0,0,3.244,7.722C10.287,21.607,26.571,16.4,45.7,16.4" transform="translate(0.226 -0.001)" fill="#f18d00"/>
        <path id="パス_857" data-name="パス 857" d="M23.349,35.888a61.543,61.543,0,0,1-11.465-4.211c-5.1-2.535-9.265-5.7-11.884-9.442v7.5C0,38.3,8.144,46.667,20.5,51.695a15.37,15.37,0,0,1-1.095-5.612,15.087,15.087,0,0,1,.106-1.807,15.377,15.377,0,0,1,3.837-8.387" transform="translate(0 7.891)" fill="#f18d00"/>
        <path id="パス_858" data-name="パス 858" d="M73.387,31.679c-8.839,4.375-20.816,7-34.035,7.013a93.286,93.286,0,0,1-15.5-1.3,10.157,10.157,0,0,0-5.281,7.575,8.548,8.548,0,0,0-.066,1.112,10.635,10.635,0,0,0,4.685,8.537,71.135,71.135,0,0,0,16.163,1.843c25.361,0,45.922-13.117,45.922-26.726V22.231c-2.619,3.741-6.788,6.911-11.888,9.448" transform="translate(6.568 7.89)" fill="#f18d00"/>
        <path id="パス_859" data-name="パス 859" d="M28.6,45.645a3.2,3.2,0,1,1,3.195-3.2,3.2,3.2,0,0,1-3.195,3.2" transform="translate(9.017 13.931)" fill="#fbee8c"/>
        <path id="パス_860" data-name="パス 860" d="M43.383,44.116a3.2,3.2,0,1,1,3.195-3.2,3.2,3.2,0,0,1-3.195,3.2" transform="translate(14.263 13.389)" fill="#fbee8c"/>
        <path id="パス_861" data-name="パス 861" d="M58.161,39.438a3.195,3.195,0,1,1,3.195-3.195,3.195,3.195,0,0,1-3.195,3.195" transform="translate(19.508 11.729)" fill="#fbee8c"/>
        <path id="パス_862" data-name="パス 862" d="M45.021,60.037A8.818,8.818,0,1,1,36.2,51.219a8.818,8.818,0,0,1,8.818,8.818" transform="translate(9.719 18.178)" fill="#f18d00"/>
        <path id="パス_863" data-name="パス 863" d="M37.7,52.01a3.019,3.019,0,1,1-3.019-3.019A3.019,3.019,0,0,1,37.7,52.01" transform="translate(11.238 17.387)" fill="#f18d00"/>
        <path id="パス_864" data-name="パス 864" d="M41.96,59.4a6.392,6.392,0,1,1-6.392-6.392A6.392,6.392,0,0,1,41.96,59.4" transform="translate(10.355 18.813)" fill="#fbee8c"/>
      </g>
    </g>
  </g>
</svg>
