<svg xmlns="http://www.w3.org/2000/svg" xmlns:xlink="http://www.w3.org/1999/xlink" width="180" height="180" viewBox="0 0 180 180">
  <defs>
    <clipPath id="clip-path">
      <rect id="長方形_147" data-name="長方形 147" width="97.689" height="100.206" fill="none"/>
    </clipPath>
  </defs>
  <g id="グループ_511" data-name="グループ 511" transform="translate(-584 -5768)">
    <circle id="楕円形_13" data-name="楕円形 13" cx="90" cy="90" r="90" transform="translate(584 5768)" fill="#ffee7d"/>
    <g id="グループ_462" data-name="グループ 462" transform="translate(625 5808)">
      <g id="グループ_461" data-name="グループ 461" transform="translate(0 0)" clip-path="url(#clip-path)">
        <path id="パス_865" data-name="パス 865" d="M45.762,8.566V1.773A1.778,1.778,0,0,0,43.989,0H5.941A1.779,1.779,0,0,0,4.168,1.773V8.566Z" transform="translate(1.031 0)" fill="#f18d00"/>
        <path id="パス_866" data-name="パス 866" d="M51.556,26.053,47.228,9a16.67,16.67,0,0,1-.366-2.248H5.128A16.475,16.475,0,0,1,4.763,9L.435,26.053A17.12,17.12,0,0,0,0,29.543V72.026A1.778,1.778,0,0,0,1.773,73.8H50.22a1.778,1.778,0,0,0,1.771-1.773V29.543a17.12,17.12,0,0,0-.435-3.49" transform="translate(0 1.67)" fill="#f18d00"/>
        <path id="パス_867" data-name="パス 867" d="M25.925,22.145A3.227,3.227,0,1,1,22.7,25.371a3.226,3.226,0,0,1,3.226-3.226" transform="translate(5.617 5.48)" fill="#fbee8c"/>
        <path id="パス_868" data-name="パス 868" d="M30.554,36.217c0,4.477-3.63,5.5-8.107,5.5s-8.107-1.025-8.107-5.5a8.107,8.107,0,0,1,16.214,0" transform="translate(3.548 6.956)" fill="#fbee8c"/>
        <path id="パス_869" data-name="パス 869" d="M17.033,22.145a3.227,3.227,0,1,1-3.226,3.226,3.226,3.226,0,0,1,3.226-3.226" transform="translate(3.417 5.48)" fill="#fbee8c"/>
        <path id="パス_870" data-name="パス 870" d="M11.012,29.218a3.227,3.227,0,1,1-3.226,3.226,3.226,3.226,0,0,1,3.226-3.226" transform="translate(1.927 7.23)" fill="#fbee8c"/>
        <path id="パス_871" data-name="パス 871" d="M31.946,29.218a3.227,3.227,0,1,1-3.226,3.226,3.226,3.226,0,0,1,3.226-3.226" transform="translate(7.107 7.23)" fill="#fbee8c"/>
        <line id="線_57" data-name="線 57" x2="41.735" transform="translate(5.128 8.421)" fill="none" stroke="#fbee8c" stroke-linecap="round" stroke-linejoin="round" stroke-width="2"/>
        <path id="パス_872" data-name="パス 872" d="M13.061,44.808H8.74A.187.187,0,0,0,8.553,45v7.342a.187.187,0,0,0,.187.187H9.945a.187.187,0,0,0,.187-.187V49.313h2.242a.188.188,0,0,0,.188-.187v-.983a.188.188,0,0,0-.188-.187H10.132V46.164h2.929a.186.186,0,0,0,.187-.187V45a.187.187,0,0,0-.187-.187" transform="translate(2.116 11.088)" fill="#fbee8c"/>
        <path id="パス_873" data-name="パス 873" d="M19.153,45.236a4.15,4.15,0,0,0-3.964,0,3.779,3.779,0,0,0-1.433,1.4,4.174,4.174,0,0,0,0,4.06,3.754,3.754,0,0,0,1.435,1.411,4.141,4.141,0,0,0,3.964,0A3.71,3.71,0,0,0,20.58,50.7a4.2,4.2,0,0,0,0-4.059,3.731,3.731,0,0,0-1.427-1.406m.338,3.433a2.9,2.9,0,0,1-.3,1.345,2.127,2.127,0,0,1-.821.876,2.532,2.532,0,0,1-2.411,0,2.143,2.143,0,0,1-.821-.876,2.9,2.9,0,0,1-.3-1.345,2.867,2.867,0,0,1,.3-1.34,2.1,2.1,0,0,1,.82-.864,2.554,2.554,0,0,1,2.414,0,2.1,2.1,0,0,1,.82.864,2.867,2.867,0,0,1,.3,1.34" transform="translate(3.273 11.069)" fill="#fbee8c"/>
        <path id="パス_874" data-name="パス 874" d="M26.427,45.236a4.15,4.15,0,0,0-3.964,0,3.779,3.779,0,0,0-1.433,1.4,4.174,4.174,0,0,0,0,4.06,3.754,3.754,0,0,0,1.435,1.411,4.141,4.141,0,0,0,3.964,0A3.716,3.716,0,0,0,27.856,50.7a4.208,4.208,0,0,0,0-4.058,3.734,3.734,0,0,0-1.428-1.406m.339,3.433a2.891,2.891,0,0,1-.3,1.345,2.127,2.127,0,0,1-.821.876,2.532,2.532,0,0,1-2.411,0,2.143,2.143,0,0,1-.821-.876,2.9,2.9,0,0,1-.3-1.345,2.859,2.859,0,0,1,.3-1.339,2.114,2.114,0,0,1,.82-.866,2.554,2.554,0,0,1,2.414,0,2.1,2.1,0,0,1,.82.864,2.863,2.863,0,0,1,.3,1.34" transform="translate(5.073 11.069)" fill="#fbee8c"/>
        <path id="パス_875" data-name="パス 875" d="M34.264,46.638a3.408,3.408,0,0,0-1.441-1.362,4.69,4.69,0,0,0-2.139-.469h-2.4a.188.188,0,0,0-.188.187v7.342a.188.188,0,0,0,.188.187h2.4a4.772,4.772,0,0,0,2.137-.458,3.377,3.377,0,0,0,1.443-1.336,4,4,0,0,0,.505-2.038,4.09,4.09,0,0,0-.505-2.053m-1.105,2.053a2.227,2.227,0,0,1-2.475,2.475H29.677v-5h1.007a2.441,2.441,0,0,1,1.84.66,2.6,2.6,0,0,1,.635,1.867" transform="translate(6.953 11.088)" fill="#fbee8c"/>
        <path id="パス_876" data-name="パス 876" d="M85.709,53.836a7.5,7.5,0,0,1-2.779,2.4,7.021,7.021,0,0,1-5.8.377.781.781,0,0,0-.942.278L61.7,77.948a.778.778,0,0,0,.076.978,7.021,7.021,0,0,1,1.716,5.549,7.5,7.5,0,0,1-1.251,3.454,5.226,5.226,0,0,1-4.805,2.456,4.935,4.935,0,0,1-3.574-2.277,7,7,0,0,1-1.136-3.569.779.779,0,0,0-1.022-.7,6.969,6.969,0,0,1-3.739.212,4.933,4.933,0,0,1-3.4-2.525,5.223,5.223,0,0,1,.58-5.365,7.514,7.514,0,0,1,2.779-2.4,7.079,7.079,0,0,1,5.428-.515.779.779,0,0,0,.891-.3L68.856,51.712a.779.779,0,0,0-.042-.938,7.083,7.083,0,0,1-1.455-5.254,7.5,7.5,0,0,1,1.251-3.454,5.226,5.226,0,0,1,4.805-2.456,4.939,4.939,0,0,1,3.574,2.278,6.984,6.984,0,0,1,1.135,3.568.778.778,0,0,0,1.022.7,7,7,0,0,1,3.74-.212,4.936,4.936,0,0,1,3.4,2.525,5.222,5.222,0,0,1-.58,5.365" transform="translate(10.904 9.795)" fill="#f18d00"/>
      </g>
    </g>
  </g>
</svg>
