<svg xmlns="http://www.w3.org/2000/svg" xmlns:xlink="http://www.w3.org/1999/xlink" width="180" height="180" viewBox="0 0 180 180">
  <defs>
    <clipPath id="clip-path">
      <rect id="長方形_58" data-name="長方形 58" width="23.603" height="26.825" fill="#f18d00"/>
    </clipPath>
    <clipPath id="clip-path-2">
      <rect id="長方形_148" data-name="長方形 148" width="77.417" height="49.105" fill="none"/>
    </clipPath>
  </defs>
  <g id="グループ_513" data-name="グループ 513" transform="translate(-794 -5768)">
    <circle id="楕円形_13" data-name="楕円形 13" cx="90" cy="90" r="90" transform="translate(794 5768)" fill="#ffee7d"/>
    <g id="グループ_465" data-name="グループ 465" transform="matrix(0.819, -0.574, 0.574, 0.819, 874.38, 5821.677)">
      <g id="グループ_161" data-name="グループ 161" clip-path="url(#clip-path)">
        <path id="パス_566" data-name="パス 566" d="M3.391.059A3,3,0,0,0,1.632,1.08,6.2,6.2,0,0,0,.172,3.719a6.984,6.984,0,0,0,0,3.079,3.422,3.422,0,0,0,1.5,2.032,2.542,2.542,0,0,0,2.05-.1c2.234-1.056,3.457-4.759,2.349-7.1A2.283,2.283,0,0,0,3.391.059" transform="translate(8.211 0)" fill="#f18d00"/>
        <path id="パス_567" data-name="パス 567" d="M4.472.047A6.156,6.156,0,0,0,.109,4.419,4.149,4.149,0,0,0,.25,6.8,2.324,2.324,0,0,0,1.807,8.14c2.085.44,4.548-1.328,5.524-3.967A3.573,3.573,0,0,0,6.979.8,2.742,2.742,0,0,0,4.472.047" transform="translate(14.695 4.112)" fill="#f18d00"/>
        <path id="パス_568" data-name="パス 568" d="M2.521.06C.815.614-.346,3.218.094,5.479A4.17,4.17,0,0,0,1.958,8.346a1.577,1.577,0,0,0,.985.15A2.254,2.254,0,0,0,4.6,7.7,4.853,4.853,0,0,0,5.926,4.379,5.1,5.1,0,0,0,4.879.843,2.635,2.635,0,0,0,2.521.06" transform="translate(0.636 4.178)" fill="#f18d00"/>
        <path id="パス_569" data-name="パス 569" d="M7.116.095A13.105,13.105,0,0,0,1.354,3.552C.334,4.581.061,5.047.008,5.848A2.287,2.287,0,0,0,1.134,8.135,7.18,7.18,0,0,0,4,8.944c2.894.4,3.695.844,5.524,3.026,1.064,1.267,1.319,1.5,1.9,1.759,1.636.739,2.912.035,3.439-1.9A12.735,12.735,0,0,0,14.98,8.2a13.024,13.024,0,0,0-1.223-5.137A5.355,5.355,0,0,0,10.388.218,9.073,9.073,0,0,0,7.116.095" transform="translate(0 12.808)" fill="#f18d00"/>
        <path id="パス_570" data-name="パス 570" d="M3.958.1A6.121,6.121,0,0,0,.905,2.269c-1.451,1.962-1.117,4.2.713,4.715A4.576,4.576,0,0,0,6.078,5.5,4.885,4.885,0,0,0,7.177,4a2.366,2.366,0,0,0,.378-1.575A2.08,2.08,0,0,0,6.236.176,5.008,5.008,0,0,0,3.958.1" transform="translate(16.045 13.132)" fill="#f18d00"/>
      </g>
    </g>
    <g id="グループ_467" data-name="グループ 467" transform="translate(847.345 5830.895)">
      <g id="グループ_466" data-name="グループ 466" transform="translate(0 0)" clip-path="url(#clip-path-2)">
        <path id="パス_877" data-name="パス 877" d="M71.627,7.652h-7.09v-2A5.729,5.729,0,0,0,58.747,0H5.789A5.729,5.729,0,0,0,0,5.653V30.562a5.729,5.729,0,0,0,5.789,5.653H9.476v7.238a5.729,5.729,0,0,0,5.789,5.653H71.627a5.729,5.729,0,0,0,5.789-5.653V13.305a5.729,5.729,0,0,0-5.789-5.653m1.984,35.8a1.963,1.963,0,0,1-1.984,1.937H15.265a1.963,1.963,0,0,1-1.984-1.937V36.214H56.049a1.859,1.859,0,1,0,0-3.717H5.789a1.962,1.962,0,0,1-1.983-1.936V5.653A1.962,1.962,0,0,1,5.789,3.717H58.747A1.962,1.962,0,0,1,60.73,5.653V36.979a1.962,1.962,0,0,1-1.983,1.937H18.605a1.859,1.859,0,1,0,0,3.717H58.747a5.73,5.73,0,0,0,5.789-5.654V11.369h7.09a1.962,1.962,0,0,1,1.984,1.936Z" transform="translate(0 0)" fill="#f18d00"/>
      </g>
    </g>
    <g id="グループ_468" data-name="グループ 468" transform="translate(847.345 5886.482)">
      <g id="グループ_161-2" data-name="グループ 161" clip-path="url(#clip-path)">
        <path id="パス_566-2" data-name="パス 566" d="M3.391.059A3,3,0,0,0,1.632,1.08,6.2,6.2,0,0,0,.172,3.719a6.984,6.984,0,0,0,0,3.079,3.422,3.422,0,0,0,1.5,2.032,2.542,2.542,0,0,0,2.05-.1c2.234-1.056,3.457-4.759,2.349-7.1A2.283,2.283,0,0,0,3.391.059" transform="translate(8.211 0)" fill="#f18d00"/>
        <path id="パス_567-2" data-name="パス 567" d="M4.472.047A6.156,6.156,0,0,0,.109,4.419,4.149,4.149,0,0,0,.25,6.8,2.324,2.324,0,0,0,1.807,8.14c2.085.44,4.548-1.328,5.524-3.967A3.573,3.573,0,0,0,6.979.8,2.742,2.742,0,0,0,4.472.047" transform="translate(14.695 4.112)" fill="#f18d00"/>
        <path id="パス_568-2" data-name="パス 568" d="M2.521.06C.815.614-.346,3.218.094,5.479A4.17,4.17,0,0,0,1.958,8.346a1.577,1.577,0,0,0,.985.15A2.254,2.254,0,0,0,4.6,7.7,4.853,4.853,0,0,0,5.926,4.379,5.1,5.1,0,0,0,4.879.843,2.635,2.635,0,0,0,2.521.06" transform="translate(0.636 4.178)" fill="#f18d00"/>
        <path id="パス_569-2" data-name="パス 569" d="M7.116.095A13.105,13.105,0,0,0,1.354,3.552C.334,4.581.061,5.047.008,5.848A2.287,2.287,0,0,0,1.134,8.135,7.18,7.18,0,0,0,4,8.944c2.894.4,3.695.844,5.524,3.026,1.064,1.267,1.319,1.5,1.9,1.759,1.636.739,2.912.035,3.439-1.9A12.735,12.735,0,0,0,14.98,8.2a13.024,13.024,0,0,0-1.223-5.137A5.355,5.355,0,0,0,10.388.218,9.073,9.073,0,0,0,7.116.095" transform="translate(0 12.808)" fill="#f18d00"/>
        <path id="パス_570-2" data-name="パス 570" d="M3.958.1A6.121,6.121,0,0,0,.905,2.269c-1.451,1.962-1.117,4.2.713,4.715A4.576,4.576,0,0,0,6.078,5.5,4.885,4.885,0,0,0,7.177,4a2.366,2.366,0,0,0,.378-1.575A2.08,2.08,0,0,0,6.236.176,5.008,5.008,0,0,0,3.958.1" transform="translate(16.045 13.132)" fill="#f18d00"/>
      </g>
    </g>
    <g id="グループ_472" data-name="グループ 472" transform="matrix(0.982, -0.191, 0.191, 0.982, 909.606, 5805.064)">
      <g id="グループ_161-3" data-name="グループ 161" clip-path="url(#clip-path)">
        <path id="パス_566-3" data-name="パス 566" d="M3.391.059A3,3,0,0,0,1.632,1.08,6.2,6.2,0,0,0,.172,3.719a6.984,6.984,0,0,0,0,3.079,3.422,3.422,0,0,0,1.5,2.032,2.542,2.542,0,0,0,2.05-.1c2.234-1.056,3.457-4.759,2.349-7.1A2.283,2.283,0,0,0,3.391.059" transform="translate(8.211 0)" fill="#f18d00"/>
        <path id="パス_567-3" data-name="パス 567" d="M4.472.047A6.156,6.156,0,0,0,.109,4.419,4.149,4.149,0,0,0,.25,6.8,2.324,2.324,0,0,0,1.807,8.14c2.085.44,4.548-1.328,5.524-3.967A3.573,3.573,0,0,0,6.979.8,2.742,2.742,0,0,0,4.472.047" transform="translate(14.695 4.112)" fill="#f18d00"/>
        <path id="パス_568-3" data-name="パス 568" d="M2.521.06C.815.614-.346,3.218.094,5.479A4.17,4.17,0,0,0,1.958,8.346a1.577,1.577,0,0,0,.985.15A2.254,2.254,0,0,0,4.6,7.7,4.853,4.853,0,0,0,5.926,4.379,5.1,5.1,0,0,0,4.879.843,2.635,2.635,0,0,0,2.521.06" transform="translate(0.636 4.178)" fill="#f18d00"/>
        <path id="パス_569-3" data-name="パス 569" d="M7.116.095A13.105,13.105,0,0,0,1.354,3.552C.334,4.581.061,5.047.008,5.848A2.287,2.287,0,0,0,1.134,8.135,7.18,7.18,0,0,0,4,8.944c2.894.4,3.695.844,5.524,3.026,1.064,1.267,1.319,1.5,1.9,1.759,1.636.739,2.912.035,3.439-1.9A12.735,12.735,0,0,0,14.98,8.2a13.024,13.024,0,0,0-1.223-5.137A5.355,5.355,0,0,0,10.388.218,9.073,9.073,0,0,0,7.116.095" transform="translate(0 12.808)" fill="#f18d00"/>
        <path id="パス_570-3" data-name="パス 570" d="M3.958.1A6.121,6.121,0,0,0,.905,2.269c-1.451,1.962-1.117,4.2.713,4.715A4.576,4.576,0,0,0,6.078,5.5,4.885,4.885,0,0,0,7.177,4a2.366,2.366,0,0,0,.378-1.575A2.08,2.08,0,0,0,6.236.176,5.008,5.008,0,0,0,3.958.1" transform="translate(16.045 13.132)" fill="#f18d00"/>
      </g>
    </g>
  </g>
</svg>
