<svg xmlns="http://www.w3.org/2000/svg" xmlns:xlink="http://www.w3.org/1999/xlink" width="180" height="180" viewBox="0 0 180 180">
  <defs>
    <clipPath id="clip-path">
      <rect id="長方形_152" data-name="長方形 152" width="119.698" height="83.917" fill="none"/>
    </clipPath>
  </defs>
  <g id="グループ_512" data-name="グループ 512" transform="translate(-1004 -5768)">
    <circle id="楕円形_13" data-name="楕円形 13" cx="90" cy="90" r="90" transform="translate(1004 5768)" fill="#ffee7d"/>
    <g id="グループ_471" data-name="グループ 471" transform="translate(1037.23 5815.978)">
      <path id="パス_878" data-name="パス 878" d="M107.37,80.753l-2.341,9.3,7.86-4.917,20.149-25.388-5.52-4.381Z" transform="translate(-13.341 -7.032)" fill="#f18d00"/>
      <g id="グループ_470" data-name="グループ 470" transform="translate(0 0)">
        <g id="グループ_469" data-name="グループ 469" clip-path="url(#clip-path)">
          <path id="パス_879" data-name="パス 879" d="M102.962,50.387a5.253,5.253,0,0,1-3.229,6.667L23.239,83.628A5.253,5.253,0,0,1,16.572,80.4L.289,33.53a5.254,5.254,0,0,1,3.229-6.667L80.013.289a5.252,5.252,0,0,1,6.666,3.229Z" transform="translate(0 0)" fill="#f18d00"/>
          <rect id="長方形_149" data-name="長方形 149" width="80.123" height="48.614" transform="translate(5.831 32.218) rotate(-19.158)" fill="#fbee8c"/>
          <path id="パス_880" data-name="パス 880" d="M60.675,37.168A2.274,2.274,0,1,0,58.562,33.2a7.247,7.247,0,0,0-3.814-.594l-2.01-5.786a4.744,4.744,0,0,1,2.126.523c.013.051.026.1.045.153a2.275,2.275,0,1,0,.781-2.563,7.238,7.238,0,0,0-3.814-.594L50.74,21.07l-3.064,1.064,1.137,3.272a7.228,7.228,0,0,0-2.623,2.83,2.274,2.274,0,1,0,2.2,1.527c-.017-.051-.039-.1-.059-.148a4.725,4.725,0,0,1,1.344-1.728l2.01,5.785A7.226,7.226,0,0,0,49.061,36.5a2.274,2.274,0,1,0,2.2,1.526c-.017-.051-.038-.1-.059-.148a4.742,4.742,0,0,1,1.344-1.728l.89,2.564,1.12,3.222a7.236,7.236,0,0,0-2.624,2.83A2.272,2.272,0,0,0,49.84,47.79c0,.009.008.016.01.024a.215.215,0,0,1,.006.025,2.274,2.274,0,1,0,4.3-1.492l-.013-.033,0-.017c-.012-.035-.026-.067-.04-.1a4.735,4.735,0,0,1,1.342-1.725l2.01,5.786a7.234,7.234,0,0,0-2.623,2.83,2.274,2.274,0,1,0,2.2,1.527c-.017-.051-.038-.1-.059-.148a4.732,4.732,0,0,1,1.344-1.728l2.01,5.786a7.23,7.23,0,0,0-2.624,2.83,2.274,2.274,0,1,0,2.2,1.527c-.017-.051-.038-.1-.059-.148a4.737,4.737,0,0,1,1.344-1.728l2.738,7.88,3.064-1.065-2.738-7.88a4.738,4.738,0,0,1,2.126.523c.014.051.027.1.045.153a2.277,2.277,0,1,0,.781-2.563,7.239,7.239,0,0,0-3.814-.595l-2.01-5.785A4.728,4.728,0,0,1,63.5,52.2c.014.052.027.1.045.153a2.275,2.275,0,1,0,.781-2.563,7.238,7.238,0,0,0-3.814-.594L58.5,43.408a4.747,4.747,0,0,1,2.122.521c.01.035.018.07.031.1l.007.016c0,.011.006.023.01.034a2.274,2.274,0,0,0,4.3-1.493c0-.009-.009-.016-.011-.024s0-.017-.006-.026a2.273,2.273,0,0,0-2.894-1.4,2.237,2.237,0,0,0-.621.331,7.23,7.23,0,0,0-3.814-.594L56.5,37.654l-.89-2.563a4.751,4.751,0,0,1,2.126.522c.014.052.027.1.045.153a2.274,2.274,0,0,0,2.894,1.4" transform="translate(-5.585 -2.676)" fill="#f18d00"/>
          <rect id="長方形_150" data-name="長方形 150" width="3.664" height="12.965" transform="translate(82.348 11.68) rotate(-19.152)" fill="#fbee8c"/>
          <rect id="長方形_151" data-name="長方形 151" width="3.664" height="12.965" transform="translate(87.435 26.323) rotate(-19.152)" fill="#fbee8c"/>
          <path id="パス_881" data-name="パス 881" d="M27.147,41.326,20.69,38.2l-2.861,6.364-6.66-19.169,9.319-3.237Z" transform="translate(-1.419 -2.814)" fill="#f18d00"/>
        </g>
      </g>
    </g>
  </g>
</svg>
