<?xml version="1.0" encoding="UTF-8"?>
<svg id="_レイヤー_1" data-name="レイヤー_1" xmlns="http://www.w3.org/2000/svg" version="1.1" viewBox="0 0 52 52">
  <!-- Generator: Adobe Illustrator 29.0.0, SVG Export Plug-In . SVG Version: 2.1.0 Build 186)  -->
  <defs>
    <style>
      .st0 {
        fill: #fffbe0;
      }
    </style>
  </defs>
  <g id="_グループ_199" data-name="グループ_199">
    <g id="_グループ_161" data-name="グループ_161">
      <path id="_パス_566" data-name="パス_566" class="st0" d="M13.7,8.3c-.8.8-1.3,1.9-1.4,3.1-.2,1.7,0,3.4.5,5,.7,1.6,1.7,3.1,3,4.2,1.1.9,2.6,1.4,4,1.3,1.2-.3,2.2-1.1,2.7-2.1,2.1-3.6.2-9.9-3.6-12-2.1-1.2-3.8-1.1-5.2.4"/>
      <path id="_パス_567" data-name="パス_567" class="st0" d="M28.1,6.7c-2.3,2.3-3.1,6.9-1.8,10.2.5,1.3,1.4,2.4,2.5,3.1,1,.6,2.3.8,3.4.3,3.3-1.4,5-6.2,3.8-10.8-.4-2-1.8-3.6-3.7-4.3-1.5-.3-3.1.2-4.2,1.4"/>
      <path id="_パス_568" data-name="パス_568" class="st0" d="M6.1,22.2c-1.8,2.4-.9,7.1,1.9,9.8,1.6,1.5,3.8,2.4,5.3,2.1.6,0,1.1-.3,1.5-.7.9-.6,1.4-1.6,1.5-2.7.3-2.1-.2-4.1-1.4-5.9-1.1-1.8-2.8-3.2-4.8-3.9-1.4-.3-2.9.2-4,1.2"/>
      <path id="_パス_569" data-name="パス_569" class="st0" d="M19.9,30.3c-2.1,2.2-3.9,6.4-4.6,10.3-.4,2.4-.3,3.3.4,4.5.7,1.4,2.2,2.2,3.8,2.1,1.7-.2,3.3-.8,4.7-1.7,4.4-2.2,5.9-2.4,10.5-1.2,2.7.7,3.3.8,4.3.6,3-.6,4-2.8,2.9-5.9-.9-1.9-2-3.6-3.3-5.1-2.6-3.1-4.2-4.6-6.6-5.9-2.2-1.3-4.9-1.5-7.4-.7-1.7.7-3.3,1.7-4.6,3"/>
      <path id="_パス_570" data-name="パス_570" class="st0" d="M37.9,18.3c-1.3,1.7-2,3.8-2.1,5.9-.1,4.1,2.5,6.9,5.5,5.8,2.4-.9,4.1-3.2,4.7-6.3.2-1,.2-2.1,0-3.1,0-.9-.4-1.8-1-2.5-1.2-1.7-2.4-2.2-4-1.8-1.2.4-2.3,1.2-3.2,2.1"/>
    </g>
  </g>
</svg>