<?xml version="1.0" encoding="UTF-8"?>
<svg id="_レイヤー_1" data-name="レイヤー_1" xmlns="http://www.w3.org/2000/svg" version="1.1" viewBox="0 0 52 52">
  <!-- Generator: Adobe Illustrator 29.0.0, SVG Export Plug-In . SVG Version: 2.1.0 Build 186)  -->
  <defs>
    <style>
      .st0 {
        fill: #fffbe0;
      }
    </style>
  </defs>
  <g id="_グループ_200" data-name="グループ_200">
    <g id="_グループ_161" data-name="グループ_161">
      <path id="_パス_566" data-name="パス_566" class="st0" d="M5.2,26.5c.2,1.1.8,2,1.7,2.7,1.2,1,2.6,1.8,4.1,2.1,1.6.3,3.2.2,4.7-.2,1.3-.4,2.4-1.3,3-2.4.4-1,.3-2.2-.3-3.2-1.7-3.4-7.5-5.1-11.1-3.2-2,1-2.7,2.4-2.3,4.2"/>
      <path id="_パス_567" data-name="パス_567" class="st0" d="M11.1,14.6c.6,2.9,3.8,5.8,7,6.5,1.2.2,2.5.1,3.7-.3,1-.5,1.7-1.4,2-2.5.6-3.2-2.3-6.9-6.4-8.3-1.7-.6-3.7-.4-5.2.7-1,1-1.4,2.5-1,3.9"/>
      <path id="_パス_568" data-name="パス_568" class="st0" d="M12.1,39.3c.9,2.6,5,4.2,8.5,3.4,1.8-.3,3.4-1.4,4.3-3,.2-.5.3-1,.2-1.5,0-1-.5-1.9-1.3-2.5-1.4-1.3-3.3-1.9-5.2-1.9-2,0-3.9.6-5.4,1.8-1,1-1.4,2.3-1.1,3.7"/>
      <path id="_パス_569" data-name="パス_569" class="st0" d="M25.2,32.7c1.1,3.3,3,6.3,5.6,8.7,1.6,1.5,2.4,1.9,3.6,1.9,1.4.1,2.8-.6,3.5-1.9.7-1.4,1-2.9,1.1-4.5.5-4.5,1.1-5.7,4.4-8.7,1.9-1.7,2.2-2.1,2.6-3,1-2.6-.1-4.5-3.1-5.2-1.9-.3-3.7-.3-5.6,0-2.7.2-5.4.9-7.8,2.2-2.1,1.1-3.6,3-4.2,5.3-.3,1.7-.3,3.4,0,5"/>
      <path id="_パス_570" data-name="パス_570" class="st0" d="M25,12.9c.7,1.9,1.9,3.5,3.5,4.6,3.1,2.1,6.5,1.5,7.2-1.4.6-2.3-.4-4.8-2.5-6.8-.7-.7-1.5-1.2-2.4-1.6-.7-.4-1.6-.6-2.4-.5-1.9,0-2.9.7-3.4,2.2-.3,1.2-.3,2.4,0,3.5"/>
    </g>
  </g>
</svg>