<?xml version="1.0" encoding="UTF-8"?>
<svg id="_レイヤー_1" xmlns="http://www.w3.org/2000/svg" version="1.1" viewBox="0 0 52 52">
  <!-- Generator: Adobe Illustrator 29.0.0, SVG Export Plug-In . SVG Version: 2.1.0 Build 186)  -->
  <defs>
    <style>
      .st0 {
        fill: #fffbe0;
      }
    </style>
  </defs>
  <g id="_グループ_202">
    <g id="_グループ_161">
      <path id="_パス_566" class="st0" d="M26.5,5.4c-1,.1-2.1.7-2.8,1.5-1.1,1.1-1.9,2.5-2.4,4-.4,1.6-.5,3.1-.3,4.7.2,1.3,1.1,2.5,2.2,3.2,1,.4,2.2.4,3.1,0,3.5-1.5,5.7-7.1,4.2-10.7-.8-2-2.2-2.9-4-2.6"/>
      <path id="_パス_567" class="st0" d="M37.9,12.3c-3,.4-6.1,3.3-7.1,6.4-.4,1.2-.3,2.5,0,3.7.4,1,1.2,1.9,2.3,2.2,3.2.8,7.1-1.7,8.8-5.7.8-1.6.7-3.6-.3-5.2-1-1-2.4-1.6-3.8-1.3"/>
      <path id="_パス_568" class="st0" d="M13.2,11.3c-2.7.8-4.6,4.6-4.1,8.2.2,1.8,1.2,3.5,2.7,4.5.5.2,1,.4,1.5.3.9,0,2-.4,2.6-1.1,1.4-1.3,2.2-3.1,2.3-5,.2-2-.2-4-1.4-5.5-.9-1-2.2-1.5-3.5-1.4"/>
      <path id="_パス_569" class="st0" d="M18.7,24.9c-3.4.8-6.6,2.5-9.1,4.9-1.7,1.5-2.1,2.2-2.2,3.4-.2,1.4.4,2.8,1.6,3.6,1.3.7,2.8,1.2,4.4,1.4,4.4.8,5.6,1.6,8.3,5,1.6,2,2,2.4,2.8,2.9,2.5,1.3,4.5.3,5.5-2.7.4-1.9.5-3.8.4-5.6,0-2.8-.5-5.5-1.5-8-1-2.2-2.8-3.9-4.9-4.7-1.7-.4-3.3-.6-5-.4"/>
      <path id="_パス_570" class="st0" d="M38.5,26.4c-1.9.5-3.6,1.6-4.9,3.1-2.4,2.9-2,6.4.8,7.3,2.3.8,4.8,0,7-1.9.8-.6,1.3-1.4,1.8-2.2.5-.7.7-1.5.7-2.4.1-1.9-.5-3-1.9-3.6s-2.3-.5-3.5-.3"/>
    </g>
  </g>
</svg>