<?xml version="1.0" encoding="UTF-8"?>
<svg id="_グループ_19" xmlns="http://www.w3.org/2000/svg" version="1.1" viewBox="0 0 730 20">
  <!-- Generator: Adobe Illustrator 29.0.0, SVG Export Plug-In . SVG Version: 2.1.0 Build 186)  -->
  <defs>
    <style>
      .st0 {
        fill: #fff;
      }
    </style>
  </defs>
  <g id="_グループ_18">
    <path id="_パス_281" class="st0" d="M0,6.3c11.8,0,11.8,12.2,23.6,12.2s11.8-12.2,23.6-12.2,11.8,12.2,23.6,12.2,11.8-12.2,23.6-12.2,11.8,12.2,23.6,12.2,11.8-12.2,23.6-12.2,11.8,12.2,23.5,12.2,11.8-12.2,23.5-12.2,11.8,12.2,23.5,12.2,11.8-12.2,23.6-12.2,11.8,12.2,23.5,12.2,11.8-12.2,23.5-12.2,11.8,12.2,23.5,12.2,11.8-12.2,23.5-12.2,11.8,12.2,23.5,12.2,11.8-12.2,23.6-12.2,11.8,12.2,23.5,12.2,11.8-12.2,23.5-12.2,11.8,12.2,23.6,12.2,11.8-12.2,23.5-12.2,11.8,12.2,23.5,12.2,11.8-12.2,23.5-12.2,11.8,12.2,23.5,12.2,11.8-12.2,23.5-12.2,11.8,12.2,23.5,12.2,11.8-12.2,23.5-12.2,11.8,12.2,23.5,12.2,11.8-12.2,23.5-12.2,11.8,12.2,23.5,12.2,11.8-12.2,23.5-12.2,11.8,12.2,23.5,12.2V0H.3l-.3,6.3Z"/>
  </g>
</svg>