<?xml version="1.0" encoding="UTF-8"?>
<svg id="_グループ_19" xmlns="http://www.w3.org/2000/svg" version="1.1" viewBox="0 0 730 20">
  <!-- Generator: Adobe Illustrator 29.0.0, SVG Export Plug-In . SVG Version: 2.1.0 Build 186)  -->
  <defs>
    <style>
      .st0 {
        fill: #f18d00;
      }
    </style>
  </defs>
  <g id="_グループ_18">
    <path id="_パス_281" class="st0" d="M729.4,12.2c-11.8,0-11.8-12.2-23.6-12.2s-11.8,12.2-23.6,12.2-11.8-12.2-23.6-12.2-11.8,12.2-23.6,12.2-11.8-12.2-23.6-12.2-11.8,12.2-23.6,12.2-11.8-12.2-23.5-12.2-11.8,12.2-23.5,12.2-11.8-12.2-23.5-12.2-11.8,12.2-23.6,12.2-11.8-12.2-23.5-12.2-11.8,12.2-23.5,12.2-11.8-12.2-23.5-12.2-11.8,12.2-23.5,12.2-11.8-12.2-23.5-12.2-11.8,12.2-23.6,12.2-11.8-12.2-23.5-12.2-11.8,12.2-23.5,12.2-11.8-12.2-23.6-12.2-11.8,12.2-23.5,12.2S246.7,0,235,0s-11.8,12.2-23.5,12.2S199.7,0,188,0s-11.8,12.2-23.5,12.2S152.7,0,141,0s-11.8,12.2-23.5,12.2S105.7,0,94,0s-11.8,12.2-23.5,12.2S58.7,0,47,0s-11.8,12.2-23.5,12.2S11.7,0,0,0v18.5h729.1l.3-6.3h0Z"/>
  </g>
</svg>