<?xml version="1.0" encoding="UTF-8"?>
<svg id="_グループ_401" data-name="グループ_401" xmlns="http://www.w3.org/2000/svg" xmlns:xlink="http://www.w3.org/1999/xlink" version="1.1" viewBox="0 0 30 30">
  <!-- Generator: Adobe Illustrator 29.0.0, SVG Export Plug-In . SVG Version: 2.1.0 Build 186)  -->
  <defs>
    <style>
      .st0, .st1 {
        fill: none;
      }

      .st1 {
        stroke: #ffee7d;
        stroke-linecap: round;
        stroke-linejoin: round;
        stroke-width: 2px;
      }

      .st2 {
        fill: #ffee7d;
      }

      .st3 {
        fill: #f18d00;
      }

      .st4 {
        clip-path: url(#clippath);
      }
    </style>
    <clipPath id="clippath">
      <rect class="st0" x=".9" y=".9" width="28.3" height="28.3"/>
    </clipPath>
  </defs>
  <g class="st4">
    <g id="_グループ_349" data-name="グループ_349">
      <path id="_パス_773" data-name="パス_773" class="st3" d="M29.1,15c0,7.8-6.3,14.1-14.1,14.1S.9,22.8.9,15,7.2.9,15,.9c7.8,0,14.1,6.3,14.1,14.1h0"/>
      <path id="_パス_774" data-name="パス_774" class="st2" d="M16.7,15c0,.9-.8,1.7-1.7,1.7s-1.7-.8-1.7-1.7.8-1.7,1.7-1.7h0c.9,0,1.7.8,1.7,1.7h0"/>
      <path id="_パス_775" data-name="パス_775" class="st1" d="M15,8.2v6.8h-4.2"/>
      <line id="_線_25" data-name="線_25" class="st1" x1="15" y1="3.3" x2="15" y2="4"/>
      <line id="_線_26" data-name="線_26" class="st1" x1="15" y1="26.1" x2="15" y2="26.9"/>
      <line id="_線_27" data-name="線_27" class="st1" x1="26.8" y1="15.1" x2="26" y2="15.1"/>
      <line id="_線_28" data-name="線_28" class="st1" x1="3.9" y1="15.1" x2="3.2" y2="15.1"/>
    </g>
  </g>
</svg>