<svg xmlns="http://www.w3.org/2000/svg" xmlns:xlink="http://www.w3.org/1999/xlink" width="58.977" height="59.91" viewBox="0 0 58.977 59.91">
  <defs>
    <clipPath id="clip-path">
      <rect id="長方形_58" data-name="長方形 58" width="39.643" height="45.054" fill="#fffbe0"/>
    </clipPath>
  </defs>
  <g id="グループ_201" data-name="グループ 201" transform="matrix(0.788, 0.616, -0.616, 0.788, 27.738, 0)">
    <g id="グループ_161" data-name="グループ 161" clip-path="url(#clip-path)">
      <path id="パス_566" data-name="パス 566" d="M5.7.1A5.037,5.037,0,0,0,2.741,1.814,10.421,10.421,0,0,0,.288,6.246a11.731,11.731,0,0,0,0,5.171A5.747,5.747,0,0,0,2.815,14.83a4.27,4.27,0,0,0,3.442-.163C10.01,12.895,12.063,6.674,10.2,2.744,9.182.558,7.675-.314,5.7.1" transform="translate(13.791 0)" fill="#fffbe0"/>
      <path id="パス_567" data-name="パス 567" d="M7.511.079C4.3.655,1,3.979.183,7.422a6.969,6.969,0,0,0,.236,4,3.9,3.9,0,0,0,2.615,2.246c3.5.739,7.638-2.231,9.278-6.663a6,6,0,0,0-.591-5.659A4.6,4.6,0,0,0,7.511.079" transform="translate(24.682 6.906)" fill="#fffbe0"/>
      <path id="パス_568" data-name="パス 568" d="M4.235.1C1.369,1.031-.582,5.4.157,9.2c.428,2.142,1.7,4.122,3.132,4.817a2.648,2.648,0,0,0,1.655.251,3.786,3.786,0,0,0,2.778-1.33A8.15,8.15,0,0,0,9.953,7.355,8.57,8.57,0,0,0,8.195,1.416,4.427,4.427,0,0,0,4.235.1" transform="translate(1.068 7.017)" fill="#fffbe0"/>
      <path id="パス_569" data-name="パス 569" d="M11.952.159C9.012.78,5.037,3.173,2.274,5.966.561,7.694.1,8.477.014,9.822a3.842,3.842,0,0,0,1.891,3.841,12.06,12.06,0,0,0,4.817,1.359c4.861.68,6.205,1.418,9.278,5.082,1.788,2.128,2.216,2.512,3.191,2.955,2.748,1.241,4.89.059,5.777-3.191a21.39,21.39,0,0,0,.192-6.1c-.34-4.019-.857-6.176-2.054-8.628A8.995,8.995,0,0,0,17.448.366a15.238,15.238,0,0,0-5.5-.207" transform="translate(0 21.511)" fill="#fffbe0"/>
      <path id="パス_570" data-name="パス 570" d="M6.647.162A10.28,10.28,0,0,0,1.521,3.811c-2.438,3.295-1.876,7.062,1.2,7.919,2.5.694,5.2-.207,7.491-2.5a8.205,8.205,0,0,0,1.847-2.512,3.975,3.975,0,0,0,.635-2.645C12.675,2.023,12,.871,10.474.295A8.412,8.412,0,0,0,6.647.162" transform="translate(26.949 22.055)" fill="#fffbe0"/>
    </g>
  </g>
</svg>
