<?xml version="1.0" encoding="UTF-8"?>
<svg id="_レイヤー_1" xmlns="http://www.w3.org/2000/svg" xmlns:xlink="http://www.w3.org/1999/xlink" version="1.1" viewBox="0 0 22 22">
  <!-- Generator: Adobe Illustrator 29.0.0, SVG Export Plug-In . SVG Version: 2.1.0 Build 186)  -->
  <defs>
    <style>
      .st0 {
        fill: none;
      }

      .st1 {
        fill: #ffee7d;
      }

      .st2 {
        clip-path: url(#clippath);
      }
    </style>
    <clipPath id="clippath">
      <path class="st0" d="M7.9,11.3h0c0-1.9,1.5-3.4,3.3-3.4s3.3,1.5,3.3,3.3-1.5,3.3-3.3,3.3-3.2-1.4-3.2-3.2M6.1,11.1c0,2.8,2.2,5,5,5s5-2.2,5-5-2.2-5-5-5-5,2.2-5,5M15.1,5.9c0,.6.6,1.2,1.2,1.1.6,0,1.1-.5,1.1-1.1s-.4-1.2-1.1-1.3c-.7,0-1.2.6-1.3,1.3M11.1,3.1h3.9c.6,0,1.3.1,1.8.3.4.2.8.4,1.1.8.3.3.6.7.8,1.1.2.6.4,1.2.3,1.8v7.8c0,.6-.1,1.3-.3,1.8-.3.8-1,1.5-1.8,1.8-.6.2-1.2.4-1.8.3h-7.8c-.6,0-1.3,0-1.8-.3-.4-.2-.8-.4-1.1-.8-.3-.3-.6-.7-.8-1.1-.2-.6-.4-1.2-.3-1.8v-7.8c0-.6,0-1.3.3-1.8.2-.4.4-.8.8-1.1.3-.3.7-.6,1.1-.8.6-.2,1.2-.4,1.8-.3h3.9M11.1,1.4h-4c-.8,0-1.6.2-2.3.4-.7.2-1.3.6-1.8,1.2-.5.5-.9,1-1.2,1.7-.3.8-.4,1.6-.4,2.4v8c0,.8.2,1.6.4,2.3.3.7.7,1.3,1.2,1.8s1.1.9,1.8,1.1c.8.3,1.5.4,2.3.4h8c.8,0,1.6-.2,2.3-.4,1.3-.5,2.4-1.5,2.8-2.8.3-.8.4-1.5.4-2.3V7.1c0-.8-.2-1.6-.4-2.3-.3-.7-.7-1.3-1.2-1.8s-1.1-.9-1.8-1.2c-.8-.3-1.5-.4-2.3-.4-.8,0-1.7,0-2.6,0h-1.2Z"/>
    </clipPath>
  </defs>
  <g class="st2">
    <g id="_グループ_150">
      <rect id="_長方形_55" class="st1" x="1.1" y="1.2" width="20" height="20"/>
    </g>
  </g>
</svg>