<?xml version="1.0" encoding="UTF-8"?>
<svg id="_グループ_431" data-name="グループ_431" xmlns="http://www.w3.org/2000/svg" xmlns:xlink="http://www.w3.org/1999/xlink" version="1.1" viewBox="0 0 392 155">
  <!-- Generator: Adobe Illustrator 29.0.0, SVG Export Plug-In . SVG Version: 2.1.0 Build 186)  -->
  <defs>
    <style>
      .st0, .st1 {
        fill: none;
      }

      .st2 {
        fill: #f4a694;
      }

      .st1 {
        stroke: #fcbe86;
        stroke-linecap: round;
        stroke-linejoin: round;
        stroke-width: 2px;
      }

      .st3 {
        fill: #f18d00;
      }

      .st4 {
        clip-path: url(#clippath);
      }
    </style>
    <clipPath id="clippath">
      <rect class="st0" width="392" height="154.9"/>
    </clipPath>
  </defs>
  <g class="st4">
    <g id="_グループ_430" data-name="グループ_430">
      <path id="_パス_805" data-name="パス_805" d="M92.8,20.6c-1.5,1.8-3.9,4.2-4.9,4.2-.7,0-1.3-.6-1.4-1.3,0-.5.3-.9.7-1.1,2.1-1.3,3.9-3,5.4-4.9h-4c0,0,0,0,0,0-.7,0-1.2-.5-1.3-1.1,0,0,0,0,0,0,0-.6.5-1.2,1.1-1.2,0,0,0,0,.1,0h4.3s0-1.3,0-1.3h0c0-.7.6-1.3,1.3-1.3.7,0,1.2.6,1.2,1.2h0s0,1.4,0,1.4h3.8s0,0,0,0c.6,0,1.2.5,1.1,1.2,0,0,0,0,0,0,0,.6-.4,1.1-1,1.2,0,0,0,0-.1,0h-3.9c0,0,0,1,0,1,.2-.1.4-.2.6-.2,1.2.3,2.4.9,3.4,1.7.3.2.5.6.5,1,0,.8-.6,1.4-1.4,1.5-.3,0-.6-.1-.8-.3-.7-.7-1.5-1.2-2.3-1.7v5.8c0,.7-.7,1.2-1.4,1.2-.6,0-1.1-.6-1.2-1.2v-5.6ZM88.2,12.4c-.7,0-1.2-.5-1.2-1.2s.5-1.2,1.2-1.2c0,0,0,0,0,0h3.1c-.2-.2-.3-.4-.4-.6-.2-.7-.5-1.3-1-1.9-.2-.2-.2-.4-.2-.6,0-.7.7-1.1,1.3-1.1,1.3,0,2.4,2.6,2.4,3.1,0,.4-.2.9-.6,1.1h1.4c.5-1.1,1-2.2,1.3-3.4,0-.6.6-1,1.1-1,.8,0,1.4.6,1.5,1.4-.3,1.1-.7,2.1-1.4,3h2.8c.7,0,1.2.5,1.2,1.2s-.5,1.2-1.2,1.2c0,0,0,0,0,0h-11.6ZM89,5.4c-.7,0-1.2-.4-1.3-1.1,0-.7.4-1.2,1.1-1.3,0,0,.2,0,.3,0h3.7v-1.8c0-.8.7-1.4,1.5-1.3.7,0,1.2.6,1.3,1.3v1.8h3.5c.6,0,1.2.4,1.3,1,0,0,0,0,0,.1,0,.6-.5,1.2-1.1,1.2,0,0,0,0-.1,0h-10ZM107.5,12h-3.1c-.1,5-.7,10.4-3.5,14.1-.3.5-.9.8-1.5.8-.8,0-1.5-.6-1.6-1.4,0-.3.1-.6.3-.8,2.9-3.5,3.5-8.4,3.5-13.1s0-3.1-.1-4.5v-.4c0-2.1.8-3,2.8-3.6,1.8-.6,3.6-1.3,5.3-2.2.2-.1.5-.2.8-.2.8,0,1.5.7,1.6,1.5,0,.6-.4,1.2-1,1.4-1,.5-4.5,1.6-5.3,1.8-.8.1-1.4.9-1.4,1.7v2.1h8.8c.7-.1,1.4.4,1.5,1.1s-.5,1.4-1.2,1.5c0,0-.2,0-.3,0h-2.9v14.1c0,.8-.8,1.4-1.6,1.3-.7,0-1.2-.6-1.3-1.3v-14.1Z"/>
      <path id="_パス_806" data-name="パス_806" d="M123.3,12.7c-1.1-.8-2.3-1.5-3.5-1.9-.5-.1-.8-.5-.8-1,0-.8.7-1.5,1.5-1.5,1.6.2,3.1.9,4.5,1.8.4.3.7.8.6,1.3,0,.8-.6,1.6-1.4,1.7-.3,0-.6-.1-.9-.3M121.3,26.7c-.8,0-1.6-.6-1.6-1.5,0-.3,0-.6.2-.8,1.4-2.4,2.6-5,3.3-7.7.3-.8,1.1-1.1,1.9-.9.6.2.9.7,1,1.3-.6,3-1.7,5.9-3.2,8.5-.3.6-.9,1-1.5,1M124.8,5.8c-.9-1-1.9-1.8-3.1-2.5-.3-.2-.6-.6-.6-1,0-.8.7-1.4,1.5-1.4.7,0,4.7,1.9,4.7,3.7,0,.9-.7,1.6-1.6,1.7-.4,0-.8-.2-1-.5M137,7.9c-.6,0-1.1-.4-1.2-1,0-.6.4-1.1,1-1.2,0,0,.2,0,.2,0h3.1c0-1.4,0-1.8-.9-1.8h-2.2c-.6,0-1.1-.4-1.1-1.1,0,0,0,0,0,0,0-.6.4-1.1,1-1.1,0,0,0,0,.1,0h2c1.2,0,3.7,0,3.8,2.7,0,.8,0,1.6,0,2.4s0,2.2,0,3.2c0,1.5-1.2,2.6-3.1,2.7-1.2,0-2.6,0-4,0-.5.7-1,1.4-1.5,2.1,1.4,0,2.9,0,4.3,0s2.8,0,3.9,0c1.9,0,3.1,1.1,3.1,2.7,0,5.7-1.1,9.9-6.8,9.9-.9,0-1.9-.1-2.8-.3-.6-.1-1-.6-1-1.2,0-.8.6-1.4,1.4-1.5,0,0,0,0,0,0,.1,0,.2,0,.4,0,.7.2,1.4.3,2.2.3,1.3,0,3.8-.2,3.8-6.4v-.3c0-.6-.5-.9-1.1-.9h-1.5c-2.5,0-5.9,0-8,0-1.5,1.4-3.6,2.8-4.5,2.8-.8,0-1.4-.6-1.4-1.4,0-.4.3-.8.7-1,2.3-1.1,4.3-2.8,5.8-4.9-.3,0-.6,0-.9,0-1.9,0-2.9-1-3-2.6,0-.8,0-1.7,0-2.6,0-3.5,0-4.6,1.6-5.3.9-.3,1.8-.7,2.6-1.1.2-.2.5-.3.8-.3.7,0,1.3.7,1.3,1.4,0,.5-.3.9-.7,1.1-.8.3-1.5.6-2.3.8-.4.1-.5.5-.6,1,0,.2,0,.5,0,.8h2.8c.6,0,1.1.5,1.1,1.1s-.5,1.1-1.1,1.1h-2.8c0,.6,0,1.1,0,1.7,0,.9.4.9,4.4.9s4.3,0,4.3-.8c0-.6,0-1.1,0-1.7h-3ZM126.7,24.3c0-.3.2-.6.4-.9.9-1,1.6-2.2,1.8-3.5,0-.6.6-1,1.2-.9.6,0,1.3.3,1.3,1,0,1.6-1.1,5.5-3.2,5.5-.7,0-1.4-.5-1.5-1.2M133.3,24.3c-.5,0-.9-.3-1-.8,0,0,0,0,0-.1v-.2c0-.3,0-.5,0-.8,0-.8,0-1.7-.2-2.5,0,0,0-.2,0-.2,0-.5.4-.9.9-.9,0,0,0,0,0,0,.5,0,1,.3,1.2.9.3,1.1.4,2.2.5,3.3,0,.7-.6,1.3-1.4,1.3,0,0,0,0,0,0M136.1,22.1c-.2-.9-.5-1.8-1-2.7,0-.1,0-.2,0-.4,0-.4.5-.7,1-.7.4,0,.8.2,1,.5.6.8,1,1.8,1.1,2.8,0,.7-.5,1.2-1.2,1.3-.5,0-.9-.4-.9-.8M140.4,21.6c-.4,0-.7-.3-.8-.6-.3-.7-.7-1.4-1.1-1.9-.1-.1-.2-.3-.2-.5,0-.4.6-.8,1.1-.8,1,0,2.2,2.1,2.2,2.7,0,.6-.5,1.1-1.1,1.1"/>
      <path id="_パス_807" data-name="パス_807" d="M153.8,26.8c-.8,0-1.5-.7-1.5-1.5,0,0,0,0,0,0,0-.7.5-1.3,1.1-1.4,2.1-.7,4-1.7,5.6-3,.2-.2.5-.3.8-.3.8,0,1.4.7,1.4,1.5,0,.4-.2.8-.5,1-2.4,2.1-6.1,3.8-6.9,3.8M176.4,17c.7,0,1.3.5,1.4,1.2,0,0,0,0,0,.1,0,.7-.6,1.4-1.4,1.4,0,0,0,0,0,0-2.1,0-6,0-9.9,0v6.5c0,0,0,0,0,0-.2.9-1,1.4-1.8,1.2-.6-.1-1.1-.6-1.2-1.2h0s0-6.5,0-6.5c-2.6,0-4.9,0-6.3,0-2.5,0-3.9-1.3-3.9-3.8,0-1.4,0-2.9,0-4.5s0-4.6,0-6.8c0-.8.7-1.4,1.4-1.4,0,0,0,0,0,0,.8,0,1.5.5,1.6,1.2,0,0,0,0,0,0h0c0,2.1-.1,4.8-.1,7.2,0,4.6,0,5.2,1.9,5.3,1.7,0,4.9,0,8.3,0s7.9,0,9.8,0h0ZM166.6.9c1.6,0,3.2,0,4.1,0,2,0,3.2,1.2,3.3,2.6,0,1.4,0,3,0,4.7s0,3.2,0,4.5c0,1.4-1.3,2.7-3.3,2.7-.9,0-2.2,0-3.7,0s-3.5,0-4.5,0c-2.1,0-3.1-1.2-3.2-2.7,0-1.3,0-2.9,0-4.5s0-3.2,0-4.7c0-1.2.9-2.5,3.2-2.6.9,0,2.5,0,4.1,0M171.2,7.2h-9.1v1.9h9.1v-1.9ZM171.1,5c0-.3,0-.6,0-.8,0-.7-.3-1-1.1-1.1-.8,0-2.2,0-3.5,0s-2.6,0-3.2,0c-.6,0-1.1.4-1.2,1,0,0,0,0,0,.1,0,.2,0,.5,0,.8h9.1ZM162.1,11.2v1c0,1.1.7,1.1,3.9,1.1,4.8,0,5.1,0,5.1-1.2,0-.3,0-.6,0-1h-9.1ZM174.8,26c-1.4-1.3-3.1-2.2-4.8-2.9-.6-.1-1-.6-1-1.2,0-.8.7-1.4,1.5-1.4.7,0,6.9,2,6.9,4.3,0,.8-.6,1.5-1.4,1.6-.4,0-.8-.2-1.1-.5"/>
      <path id="_パス_808" data-name="パス_808" d="M198.7,16c.4,1.1.9,2.2,1.7,3.2,1.7-.7,3.3-1.5,4.7-2.5.2-.2.5-.3.8-.2.8,0,1.5.7,1.5,1.6,0,.6,0,1.4-5.3,3.1,2.2,1.7,4.7,2.7,7.4,3,.7.1,1.3.7,1.2,1.5,0,.9-.7,1.6-1.6,1.7,0,0,0,0,0,0-6.4-.7-11.7-5.2-13.5-11.3h-3.2v7c1.4-.4,2.7-.9,3.7-1.3.2,0,.4-.1.7-.2.8,0,1.4.5,1.4,1.3,0,.6-.5,1.2-1.1,1.4-3.6,1.5-7.3,2.6-11.1,3.3-.8,0-1.6-.5-1.7-1.4,0,0,0,0,0-.1,0-.8.6-1.4,1.4-1.4,1.2-.2,2.5-.4,3.6-.7v-7.8h-4.2c-.7,0-1.3-.4-1.3-1.1,0,0,0,0,0-.1,0-.7.5-1.3,1.3-1.3,0,0,0,0,0,0h4.2c0-1,0-2,0-3.1,0-1.7,0-3.5,0-5,0-2.6,1.1-4,4-4,2.2,0,4.8,0,7.4,0s3.3,0,4.7,0c.7,0,1.4.5,1.4,1.2,0,0,0,0,0,0,0,.7-.6,1.3-1.3,1.3,0,0,0,0-.1,0h0c-1.7,0-3.5,0-5.3,0s-4.4,0-6.3,0c-1.1,0-1.4.6-1.4,1.5h0c0,0,12.1,0,12.1,0,.6,0,1.1.4,1.2,1,0,0,0,0,0,.1,0,.6-.4,1.1-1,1.1,0,0,0,0-.1,0h-12.2v1.7h12.2c.6,0,1.1.5,1.2,1.1,0,.6-.5,1.1-1.1,1.2,0,0,0,0,0,0h-12.2v1.7h16.9c.7,0,1.3.6,1.3,1.3,0,.7-.6,1.3-1.3,1.3h-10.7Z"/>
      <path id="_パス_809" data-name="パス_809" d="M242,23h0c0,1.9-1.3,4.2-5.4,4.2s-3.4,0-3.4-1.8c0-.7.5-1.4,1.2-1.4,0,0,0,0,0,0,0,0,.2,0,.3,0,.6.1,1.3.2,2,.2,1.3,0,2.2-.4,2.2-1.8,0-13.4,0-15.6,0-16.1,0-1.8-.7-2.1-2.2-2.1-2.2,0-4.6,0-6.8,0s-4.5,0-6.6,0c-1.8,0-2.3.6-2.3,2.1,0,3.6-.1,7.7-.1,11.9s0,5.3,0,8h0c0,.8-.6,1.4-1.4,1.4,0,0,0,0-.1,0-.8,0-1.5-.5-1.5-1.3,0,0,0,0,0,0h0c0-6.9,0-14.4.2-21.3,0-2,1.5-3.3,3.9-3.4,2.7,0,5.6,0,8.6,0s5.2,0,7.7,0c2,0,3.7,1.6,3.8,3.6.1,4.7,0,10,.1,13.4v4.3ZM231.1,12.5v7c2,0,2.4-.3,2.5-1.1,0-.8,0-2.5,0-3.2,0-.7.6-1.3,1.3-1.3,0,0,0,0,0,0,.7,0,1.3.5,1.4,1.2,0,0,0,0,0,0,0,.4,0,.9,0,1.5,0,3,0,5-3.2,5.1-1.2,0-2.4,0-3.6,0-4.6,0-6.2,0-6.3-2.9v-3.9c0-.7.7-1.2,1.4-1.2.6,0,1.2.4,1.3,1,0,0,0,0,0,0v2.3c0,2.1,0,2.1,2.5,2.1v-7h-5.5c-.7,0-1.2-.4-1.3-1.1,0,0,0,0,0-.1,0-.7.5-1.2,1.2-1.2,0,0,0,0,.1,0h6.9c0,0,.6,0,.6,0,0,0,0-.2.1-.3.7-1.4,1.4-2.8,1.9-4.3.2-.5.7-.8,1.2-.8.8,0,1.5.5,1.7,1.4,0,.4-.1.6-2,3.9h3.4s0,0,0,0c.6,0,1.2.4,1.3,1.1,0,0,0,0,0,0,0,.7-.5,1.2-1.2,1.2,0,0,0,0,0,0h-5.5ZM226.1,9.1c-.5-.9-1.1-1.6-1.7-2.3-.1-.2-.2-.4-.2-.6,0-.6.8-1.1,1.5-1.1,1.1,0,3.1,2.4,3.1,3.3,0,.8-.7,1.5-1.5,1.5-.5,0-.9-.3-1.1-.8"/>
      <path id="_パス_810" data-name="パス_810" d="M262.1,7.2h-11.6c-.8.1-1.4-.5-1.5-1.2,0,0,0,0,0-.1,0-.8.6-1.4,1.3-1.5,0,0,0,0,.1,0h10c0,0,0-2.9,0-2.9,0-.8.7-1.5,1.6-1.5,0,0,0,0,0,0,.8,0,1.5.5,1.6,1.3,0,0,0,0,0,.1v3s10,0,10,0c.8,0,1.4.6,1.4,1.3,0,0,0,0,0,.1,0,.8-.6,1.4-1.3,1.4,0,0,0,0-.1,0h-11.7ZM260.6,12.9c-1.8,0-3.4,0-4.3,0-.8,0-1.2.4-1.2,1.4,0,1.1,0,2.8,0,4.5s0,3.5,0,5h0c0,.8-.7,1.4-1.4,1.3,0,0,0,0-.1,0-.8,0-1.5-.5-1.6-1.3,0,0,0,0,0,0v-1.9c0-2.7,0-5.9,0-8.3,0-2.2,1.3-3.3,3.6-3.4,1.2,0,3,0,5,0v-1.1c0-.8.7-1.5,1.5-1.5s1.5.7,1.5,1.5h0v1.1c2,0,4,0,5.3,0,2.1,0,3.5,1.1,3.5,3.3,0,1,0,2.1,0,3v2c0,.5,0,1.2,0,2.3h0c0,2.2-1.6,3.9-4.5,3.9s-3.2-.2-3.2-1.7c0-.7.5-1.4,1.2-1.5,0,0,0,0,0,0,.1,0,.2,0,.3,0,.5.1,1,.2,1.6.2.8,0,1.5-.3,1.5-1.3,0,0,0-4.5,0-6.5,0-.6-.4-1.1-1-1.2,0,0-.1,0-.2,0-1,0-2.8,0-4.6,0v13.2c0,.9-.7,1.6-1.6,1.6-.9,0-1.6-.7-1.6-1.6v-13.1Z"/>
      <path id="_パス_811" data-name="パス_811" d="M294.8,9.5c-.5,3.9-3.3,9.7-6.2,12.5-2.4,2.2-5,1-6.3-1.7-1.9-3.8.1-9.6,4.3-12.4,3.8-2.6,9.4-3.1,13.3-.7,4.8,2.9,5.5,8.5,2.9,12.9-1.8,2.6-4.5,4.4-7.5,5.1-2.7.7-3.7-2.4-1-3,2.3-.5,4.7-1.8,5.7-3.5,2.2-3.5,1.4-7.5-1.7-9.4-1.1-.7-2.5-1.2-3.8-1.2.4.4.5.9.4,1.4M288,10c-2.9,2.2-4.4,6.3-3.1,8.7.5.9,1.3,1.4,2,.7,2.3-2,4.5-6.9,4.8-10.3,0-.3.1-.7.3-1-1.4.3-2.8.9-4,1.8"/>
      <path id="_パス_812" data-name="パス_812" d="M20.2,60.4c-5,0-10.2,0-13.7.1-4.2,0-6.3,1.6-6.5,4.7,0,1.4-.1,5.9,0,7.7,0,.9.5,1.7,1.3,2.1.9.4,2,.3,2.8-.2.7-.5,1.2-1.4,1.1-2.3-.1-1.4-.2-4.5-.2-5.6,0-1.1,1-1.9,2.1-1.9,2.2,0,9.1-.2,12.2,0,1.6,0,2.1.7,2,2.3-.5,8.6-6.7,15.8-15.2,17.7-.9.1-1.7.6-2.2,1.4-.3.6-.4,1.3-.2,1.9h0c.4,1.1,1.5,1.8,2.7,1.8.3,0,.7,0,1-.1,11-3.2,18.3-11.8,19.1-22.4.2-2.7-.1-4.4-1.1-5.4s-2.6-1.6-5.4-1.6"/>
      <path id="_パス_813" data-name="パス_813" d="M66.3,69.4c-.9,0-1.8.6-2.2,1.4-5.8,11.2-15.4,18-21.8,19.7-1.1.2-1.9,1-2.2,2-.4,1.4.5,2.9,1.9,3.3.2,0,.5,0,.8,0,.4,0,.8,0,1.2-.2,9.3-3,18.8-11.4,24.6-22.1.6-.9.7-2.1.1-3-.5-.8-1.4-1.3-2.4-1.2"/>
      <path id="_パス_814" data-name="パス_814" d="M46.4,77.7h0c.5.5,1.1.7,1.8.7,0,0,.2,0,.3,0,.8-.1,1.5-.5,1.9-1.2.9-1.3.6-3-.6-4,0,0,0,0,0,0-2.4-1.5-5-2.6-7.8-3.4-1-.3-2.1,0-2.8.6-.7.7-.9,1.6-.7,2.5.2.7.8,1.3,1.6,1.4,2.3.6,4.5,1.7,6.3,3.2"/>
      <path id="_パス_815" data-name="パス_815" d="M91.1,85.8c-1,0-1.9.7-2.3,1.6-.3.7-.2,1.5.3,2.2.6.7,1.5,1.1,2.5,1,.3,0,.5,0,.8,0,4.8-.6,9.5-2.9,11.9-5.8,2.6-3.1,3.3-6.9,1.6-9.9-1.7-3.1-5.3-4.5-9.7-4-3,.5-5.8,1.7-8.2,3.4.2-1,.4-2.4.7-3.9.2-1.4.5-2.9.8-4.5,1.6-.6,3.2-1.3,4.8-2,1.2-.4,2.1-1.5,2.2-2.7,0-.9-.5-1.7-1.2-2.2-1-.5-2.1-.3-2.9.3-.6.4-1.2.8-1.8,1.1.3-1.4.6-2.6.8-3.5.3-.8,0-1.7-.5-2.3-.7-.7-1.6-.9-2.5-.7-.8.2-1.5.9-1.6,1.8-.3,1.4-.7,3.7-1.2,6.4-1.3.2-2.6.2-3.9,0-.9-.3-1.9,0-2.6.6-.5.6-.7,1.5-.4,2.2.4,1,1.3,1.7,2.3,1.8,1.3.2,2.6.3,3.8.2-.5,3.6-1.1,7.3-1.4,9.8l-.2,1.1c-.2,1.2.2,2.5,1.1,3.3.6.6,1.5.8,2.3.5.9-.3,1.6-.9,2-1.7.2-.3.4-.6.6-.8,2-2.1,4.6-3.5,7.5-3.9,2.5-.2,4.2.4,4.8,1.7.7,1.4,0,3.3-1.5,5.1-1.7,1.9-5.1,3.4-8.9,3.8"/>
      <path id="_パス_816" data-name="パス_816" d="M140.9,69c-2.2-1.4-5-1.4-8.6-.1,0-.4,0-.7,0-1.1-.4-1.1-1.1-2.1-2-2.9-.9-.7-2.1-.8-3-.1-.4.3-.7.7-.8,1.3,0,.4.1.8.4,1.1l.2.2c.5.5.9,1.1,1.2,1.7.1.5.5.9.9,1.2-1.1.6-2.2,1.2-3.3,1.8v-.2c-.4-.6-.7-1.2-.9-1.9-.1-.4-.3-.8-.5-1.2-.3-1.1-1.5-1.7-2.6-1.4,0,0,0,0,0,0-1.1.3-1.7,1.5-1.4,2.5.3,1.3.8,2.5,1.5,3.6l.2.5c-1.1.5-2.2,1-3.3,1.3-.8.2-1.5.8-1.8,1.6-.2.7,0,1.5.6,2,.6.6,1.5.7,2.2.5,1.5-.5,2.9-1.1,4.2-1.8.6,1.1,1.3,2.4,2,3.8,1.4,2.4,2.5,5,3.3,7.6.2.9.8,1.7,1.7,2,.2,0,.3,0,.5,0,.6,0,1.1-.2,1.6-.7.7-.8.8-1.9.4-2.8-1.1-2.7-2.4-5.3-3.8-7.9v-.2c-.9-1.3-1.6-2.6-2.3-3.9l.4-.3c.6-.4,1.1-.7,1.7-1,1.5-.9,6.5-3.5,8.5-2,.3.2.6.6.6,1,0,.5-.1,1.1-.4,1.5-1.3,1.7-3.7,2.2-5.5,1.2-.5-.4-1.1-.5-1.7-.4-1.2.3-1.9,1.5-1.7,2.7.1.6.5,1.1,1.1,1.4,1.7.9,3.7,1.2,5.6.9,2.3-.3,4.4-1.5,5.8-3.4,1-1.4,1.5-3.1,1.2-4.8-.3-1.4-1.2-2.6-2.4-3.4"/>
      <path id="_パス_817" data-name="パス_817" d="M189,83.6c-.6-.8-1.5-1.3-2.5-1.2-1,.1-1.8.8-2,1.7-.8,2.3-2.1,4.4-3.9,6-1.6,1.4-3.5,2.1-4.7,1.5-.9-.5-1.3-1.5-1.2-2.4,0-.7,0-1.3.1-2,.1-.9.2-1.9.1-2.9-.3-3.3-1.9-4.6-3.2-5.1-2.1-.7-4.3-.5-6.2.5l.4-.7c.6-1,1.3-2,2-3.1,1.4-2,3-4,4.6-5.8.2-.2.4-.4.5-.6.3-.3.5-.6.7-.9.4-.5.7-1,1-1.6.7-1.2.3-2.8-.9-3.5,0,0-.1,0-.2,0-1.2-.7-2.7-.3-3.4.8,0,0,0,0,0,0-.2.4-.7,1.1-1.1,1.7-.4.6-.9,1.3-1.2,1.9-.7,1.1-1.4,2.2-2.1,3.4-1.5,2.5-3.1,5-4.8,7.7-2.8,4.2-5.1,8.6-7,13.3-.5.9-.4,1.9.2,2.8.7.8,1.7,1.1,2.7,1,1.1-.2,2.1-.6,2.8-3.9.5-1.8,1.3-3.5,2.3-5,.2-.3.3-.6.5-.8.9-1.6,4.5-4,6.4-3.5.8.2,1.2.8,1.2,2,0,.9,0,1.9-.1,2.8,0,.7-.1,1.5-.1,2.4,0,3.7,1.6,5.2,3,5.9,1,.4,2,.7,3,.6,2.8-.1,5.5-1.1,7.7-2.8,2.4-2,4.3-4.5,5.6-7.3.5-.9.5-2.1-.1-3"/>
      <path id="_パス_818" data-name="パス_818" d="M227.5,81.8c-5.4,1.1-9.1.9-10.8-.7-.9-.9-2.4-1-3.3-.1,0,0,0,0,0,0-.9.9-1,2.4,0,3.4h0c2,2.2,5.8,3.1,9.6,3.1,1.9,0,3.8-.2,5.6-.7,1.5-.4,2.4-1.9,2.1-3.4-.3-1.3-1.6-2.1-2.9-1.8,0,0-.2,0-.2,0"/>
      <path id="_パス_819" data-name="パス_819" d="M215.4,67.2c.2,0,.4,0,.6,0,3.3-.8,6.7-.9,10-.1,1.2.4,2.5-.3,2.9-1.5,0,0,0-.1,0-.2.3-1.4-.6-2.7-1.9-3,0,0,0,0-.1,0-3.8-.8-7.8-.7-11.6.3-.9.2-1.7.8-2,1.7-.2.8,0,1.7.6,2.3.4.4,1,.7,1.5.7"/>
      <path id="_パス_820" data-name="パス_820" d="M201.5,87.5c.3,1,1,1.7,2,2,.2,0,.3,0,.5,0,.6,0,1.1-.2,1.5-.6.6-.7,1-1.6.8-2.5,0-.4,0-.8,0-1.1.5-2.1,1.4-4.2,2.5-6,.5-1,.2-2.2-.8-2.7-.9-.6-2.1-.3-2.6.6,0,0,0,0,0,.1-.1.2-.6,1.2-.8,1.4-.9-3.3.8-11,1.8-15.5.2-.9.4-1.6.5-2.2.2-.8-.1-1.5-.7-2-.7-.6-1.6-.7-2.5-.4-.9.4-1.5,1.2-1.5,2.1-.1.8-.3,1.9-.6,3.1-1.2,6.2-3.1,16.5-.2,23.7Z"/>
      <path id="_パス_821" data-name="パス_821" class="st3" d="M344.7,87.9c-4.8,3.8-10,5.5-12.9,4.1-1.5-.7-2.4-2.3-2.3-3.9,0-2.8,0-5.7.4-8.5.1-1.4.3-2.8.4-4.3.2-2.6.5-7,.6-9.8,0-.9-.4-1.7-1.2-2.1-.9-.5-2-.5-3,0-.8.5-1.2,1.3-1.1,2.2,0,2,0,5-.2,7.5,0,.8,0,1.6-.1,2.3,0,1.4-.2,2.8-.3,4.1-.3,2.9-.3,5.9-.3,8.8.1,4,1.8,6.8,4.8,8.2,1.5.6,3.1,1,4.7.9,5-.2,9.9-2.1,13.7-5.3,1.2-.9,1.4-2.7.5-3.9,0,0,0,0,0,0-.9-1.1-2.5-1.3-3.6-.4,0,0-.1.1-.2.2"/>
      <path id="_パス_822" data-name="パス_822" class="st2" d="M373.1,75.8c-1.1-.5-2.4,0-3,1.1,0,0,0,0,0,.1-.4.9-.9,1.7-1.4,2.5-.4.5-.7.8-1,.8s-.7-.2-1.3-.8c-2.1-2-3.2-5.6-3.4-11.1,0-.7,0-1.3,0-2,0-.6,0-1.2,0-1.8,0-1.3-.9-2.4-2.1-2.5,0,0-.1,0-.2,0h0c-1.4,0-2.6,1.1-2.6,2.5,0,1.3,0,2.5.1,3.8v1.1c.5,6.2,2.2,11,5.1,14.1h0c1.1,1.2,2.6,2,4.2,2,.2,0,.3,0,.5,0,1.3-.1,3.2-.8,4.8-3.6.7-1.1,1.3-2.2,1.7-3.4.4-1.2-.2-2.5-1.4-2.9"/>
      <path id="_パス_823" data-name="パス_823" class="st3" d="M392,74.8c-.5-4-3.8-8.2-6.6-10.3-.8-.7-1.8-.8-2.8-.5-.7.3-1.2,1-1.3,1.8,0,.7.3,1.4.9,1.8,2.2,1.5,4,4.7,4.7,8.3h0c.2,1.2,1.2,2.1,2.4,2.1.1,0,.3,0,.4,0,1.5-.2,2.5-1.6,2.3-3.1,0,0,0,0,0,0"/>
      <path id="_パス_824" data-name="パス_824" d="M101.8,123.1c-1.1-.4-2.4.2-2.8,1.3-.3.9.2,1.8,1.1,2.1,0,0,.1,0,.2,0,1.4.6,2.6,1.4,3.7,2.4.3.4.8.6,1.3.6.1,0,.3,0,.4,0,1.2-.4,1.9-1.7,1.5-2.9-.1-.4-.3-.7-.6-1-1.4-1.1-3-2-4.7-2.5"/>
      <path id="_パス_825" data-name="パス_825" d="M105.5,119c-1.2-.3-2.4.3-2.8,1.4-.2.9.3,1.8,1.1,2,0,0,.1,0,.2,0,1.4.6,2.6,1.3,3.8,2.3.3.3.8.5,1.2.5.2,0,.3,0,.5,0,.8-.3,1.3-.9,1.5-1.7.2-.8-.1-1.7-.7-2.2-1.4-1.1-3.1-1.8-4.8-2.3"/>
      <path id="_パス_826" data-name="パス_826" d="M94.6,131.7c-.2,0-.3,0-.5,0,0-3.5,0-7.7.1-10,0-.9-.4-1.7-1.1-2.1-.9-.5-1.9-.5-2.8,0-.7.4-1.2,1.2-1.1,2.1.2,6.5,0,23.6-.3,30.5-.2,1.4.8,2.6,2.1,2.8.1,0,.3,0,.4,0,.5,0,1-.1,1.4-.4.9-.6,1.4-1.6,1.3-2.6,0-3.1,0-8.7,0-15.5,2.9.7,5.6,1.9,8.1,3.4,1,.8,2.5.7,3.3-.3,0,0,0,0,0-.1,1-1.2.8-2.9-.3-3.9-2.5-2.2-8.7-3.5-10.6-3.9"/>
      <path id="_パス_827" data-name="パス_827" d="M120.3,141.7c.3.8,1.1,1.3,1.9,1.3h0c.8,0,1.6-.5,2.1-1.2.4-.7.4-1.6,0-2.3-.9-1.5-2-2.8-3.3-3.9-.6-.6-1.5-.8-2.3-.6-.7.2-1.3.9-1.5,1.6-.1.7.1,1.3.7,1.8,1,.9,1.8,2,2.4,3.3h0Z"/>
      <path id="_パス_828" data-name="パス_828" d="M135.8,132.5c-.8.2-1.4.9-1.6,1.7-1.6,7.3-6.7,13.4-13.6,16.3-1.1.4-1.7,1.7-1.3,2.8,0,0,0,0,0,.1h0c.4.8,1.1,1.3,2,1.3.5,0,.9-.1,1.3-.3,8.1-3.6,13.3-9.9,16.1-19,.3-.8,0-1.7-.5-2.3-.7-.7-1.6-.9-2.5-.7"/>
      <path id="_パス_829" data-name="パス_829" d="M127.8,140.9c.1,0,.3,0,.4,0,.7,0,1.4-.3,1.8-.9.5-.7.6-1.6.3-2.3-.7-1.6-1.6-3-2.7-4.4-.5-.7-1.4-1-2.3-.9-.8.1-1.4.7-1.7,1.4-.2.6,0,1.3.4,1.8.9,1.1,1.6,2.3,2,3.6.2.8.9,1.4,1.7,1.6"/>
      <path id="_パス_830" data-name="パス_830" d="M173.3,124.2c-1.2,0-2.7.2-4.1.3h-1.2c.6-.7.7-1.7.4-2.5-.5-.9-1.4-1.4-2.3-1.4-.9,0-1.8.4-2.2,1.2-2.1,3.7-7.8,11.5-11.8,14-.9.5-1.4,1.4-1.4,2.4,0,.9.5,1.6,1.3,2,1,.4,2.1.3,2.9-.3,3.1-2.1,7.1-6.9,9.8-10.5,2.1-.2,5.1-.5,6.9-.6.3,0,.6,0,.8.3.2.3.2.7,0,1-2.9,6.8-9.9,15.9-20,19.4-1,.3-1.9,1.1-2.1,2.1-.1.8.2,1.6.8,2.1.5.4,1.2.6,1.8.6.5,0,1.1-.1,1.5-.3,5.6-2.2,10.5-5.6,14.5-10,3.7-4.3,6.8-9,9.2-14,.7-1.1.6-2.5,0-3.6-1.2-1.5-3-2.3-4.9-2.1"/>
      <path id="_パス_831" data-name="パス_831" d="M199.6,138.2c-.4-.7-1.2-1.2-2.1-1.2h0c-.8,0-1.5.4-1.9,1.1-1.5,2.4-3.4,4.5-5.7,6.2-.5.3-.9.9-1.1,1.5-.3,1.4.7,2.7,2,2.9.1,0,.3,0,.4,0,.5,0,1-.2,1.4-.4,2.8-1.8,5.6-5.9,6.7-7.9.5-.7.5-1.6.1-2.3"/>
      <path id="_パス_832" data-name="パス_832" d="M208,133.6c3.1,0,6.4,0,9.5.2,1,.1,1.9-.3,2.5-1.1.4-.7.5-1.5,0-2.3-.5-.8-1.4-1.3-2.4-1.2-3.1,0-6.4,0-9.7,0,0-2.2,0-4.1.1-5.4,0-.9-.4-1.7-1.1-2.1-.8-.4-1.7-.4-2.5,0-.8.5-1.2,1.4-1.1,2.3,0,1.2,0,3.1,0,5.2-3.5,0-7,.1-10.3.3-.9,0-1.8.4-2.3,1.3-.4.7-.3,1.5.1,2.2.5.8,1.4,1.2,2.3,1.1,3.8-.1,7-.3,10.3-.3,0,4.5,0,9.4,0,12.4,0,.5-.1,1.1-.5,1.4-.7.5-1.9.2-2.9-.1-.8-.3-1.7,0-2.3.5-.7.6-.9,1.6-.7,2.5.4,1,1.3,1.7,2.4,1.8.9.2,1.8.2,2.7.3,1.5,0,3-.4,4.3-1.3,1.2-1.1,1.8-2.6,1.7-4.2,0-1.2,0-1.9,0-3.3-.1-2.9-.2-6.5-.1-10.1"/>
      <path id="_パス_833" data-name="パス_833" d="M214.2,137.3c-.8-.5-1.7-.5-2.5-.1-.7.4-1.2,1.1-1.2,2,0,.7.4,1.4,1,1.7,2.5,1.5,4.6,3.5,6.3,5.8h0c.3.5.8.9,1.4,1,.1,0,.3,0,.4,0,.5,0,1-.2,1.4-.5,1.1-.8,1.5-2.3.8-3.4-2-3.1-6.7-6-7.6-6.5"/>
      <path id="_パス_834" data-name="パス_834" d="M240.6,127.2c3,0,6.8,0,10.7-.1,2.2,0,4.4,0,6.5-.1,1.3,0,2.3-1,2.3-2.3,0-.6-.2-1.2-.7-1.6-.5-.5-1.2-.7-1.8-.6h-2.8c-4.7.2-9.6.3-14.2.3h0c-.9,0-1.8.4-2.3,1.2-.4.7-.4,1.5,0,2.2.5.8,1.4,1.3,2.3,1.2"/>
      <path id="_パス_835" data-name="パス_835" d="M262.8,131.2c-5.6,0-20.6.1-27.1.2-1.4-.2-2.6.8-2.7,2.2,0,0,0,.2,0,.2,0,.6.2,1.2.6,1.6.5.5,1.2.7,1.9.7h2.1c2.9-.2,6.6-.3,10.4-.3-.3,6.4-4.7,11.8-10.9,13.2-1,.2-1.7,1-2,2-.2.8,0,1.7.7,2.2.5.4,1.1.7,1.8.6.6,0,1.1-.1,1.6-.3,8.2-2.9,13.4-9.5,13.9-17.8,3.5,0,7,0,9.6,0h.1c1.3,0,2.5-.9,2.6-2.2,0,0,0,0,0,0,0-.6-.1-1.2-.5-1.6-.5-.5-1.2-.8-1.9-.7"/>
      <path id="_パス_836" data-name="パス_836" d="M305.1,131h0c-.9,0-1.8.6-2.2,1.5-2.7,4.9-6.1,8.8-9.6,10.8-.6.3-.7.3-.8.2-.1,0-.1-.3-.1-.6,0-.6.1-3.1.2-5.9.1-3.7.3-7.8.3-8.8.1-1.3-.9-2.5-2.2-2.6-1.3-.1-2.5.9-2.6,2.2,0,.1,0,.3,0,.4,0,2.5-.3,12.8-.6,16.9-.2,1.4.3,2.9,1.5,3.7.6.4,1.4.6,2.1.6.8,0,1.7-.2,2.4-.6h0c5.9-3.2,10.7-8,13.9-13.9.5-.8.5-1.8,0-2.6-.5-.8-1.3-1.3-2.2-1.3"/>
      <path id="_パス_837" data-name="パス_837" d="M283.8,126.7c-.8-.4-1.8-.4-2.7,0-.8.5-1.2,1.4-1.1,2.4.4,8.1-3.4,14.8-9.8,17.7h0c-.9.3-1.6,1.2-1.7,2.2,0,.9.4,1.7,1.1,2.2.4.3.9.4,1.5.4.6,0,1.3-.2,1.8-.5,9.4-5.2,12.4-14.9,12.1-22.3,0-.9-.5-1.7-1.3-2.1"/>
      <line id="_線_35" data-name="線_35" class="st1" x1="51.5" y1="5.2" x2="74.3" y2="33.1"/>
      <line id="_線_36" data-name="線_36" class="st1" x1="46.4" y1="7" x2="69.2" y2="34.9"/>
      <line id="_線_37" data-name="線_37" class="st1" x1="334.5" y1="5.2" x2="311.7" y2="33.1"/>
      <line id="_線_38" data-name="線_38" class="st1" x1="340.2" y1="5.2" x2="317.4" y2="33.1"/>
      <path id="_パス_838" data-name="パス_838" class="st2" d="M242.1,78.2c-1,.2-1.8.9-2.1,1.9-.2.8,0,1.7.7,2.3.7.6,1.6.9,2.5.6,2.1-.7,4.1-1.6,6-2.6l-2.3-4.1c-1.6.8-3.3,1.5-5,2"/>
      <path id="_パス_839" data-name="パス_839" d="M256.1,81.7c.1.6.5,1.1,1.1,1.4l-1.1-1.4h0"/>
      <path id="_パス_840" data-name="パス_840" class="st3" d="M250.8,73.3c-.4-.9-.8-1.9-1.2-2.9-.2-.5-.3-.9-.5-1.4-.4-1.2-1.8-1.9-3.1-1.5-1.2.4-1.8,1.6-1.5,2.9.2.8.6,1.7.9,2.4.4.8.8,1.6,1.2,2.4.1.3.3.5.4.8,0,0,0,.1.1.2l2.3,4.1c1,1.8,2,3.7,3,5.6,1.9,3.3,3.4,6.9,4.6,10.5.2.9.7,1.7,1.5,2.2.4.2.8.3,1.2.3.3,0,.5,0,.8-.1,1.3-.4,2.2-2,1.5-4.1-1.5-3.7-3.2-7.2-5.2-10.7h0c-.8-1.5-1.7-3-2.5-4.5l-.9-1.6-2.2-4c-.1-.3-.3-.5-.4-.8"/>
      <path id="_パス_841" data-name="パス_841" class="st2" d="M274.9,73.8c-.4-1.8-1.5-3.3-3-4.2-3-1.9-7.1-1.8-12.2.1h-.2c.5-.5.6-1.3.4-2.1-.5-1.5-1.5-2.7-2.7-3.7-1.2-1-2.9-1-4,.1-.6.6-.7,1.5,0,2.1,0,0,0,0,0,0,.4.4.7.8,1.1,1.2.4.5.7,1,.9,1.6h0c.2.8.8,1.4,1.6,1.6.1,0,.2,0,.4,0-1.6.8-3.1,1.6-4.6,2.5-.5.3-.9.5-1.4.8l2.2,4,.3-.2c2.4-1.5,4.9-2.9,7.5-4,3.7-1.5,6.3-1.6,7.8-.6,1.2.9,1.5,2.7.6,3.9,0,0-.1.2-.2.2-2.3,2.7-6.1,3.4-9.2,1.7-.6-.4-1.3-.6-2-.5-.7.1-1.2.5-1.6,1.1-.4.6-.5,1.3-.4,2l1.1,1.4c4.7,2.7,12.6,2,16.2-3.2,1.4-1.8,1.9-4,1.6-6.2"/>
      <path id="_パス_842" data-name="パス_842" class="st3" d="M289.7,62.8c-1.7-.8-2.9-.2-3.4.8-.6,1.3,0,2.9,1.3,3.5,0,0,0,0,0,0,3.1,1.6,6.9,1.9,12,.8.2,0,.4,0,.7-.1l-2.7-4.3c-3,.6-5.3.7-7.9-.6"/>
      <path id="_パス_843" data-name="パス_843" class="st2" d="M307.4,70.7c-.5-.7-1-1.5-1.5-2.3-.4-.7-.9-1.3-1.3-2l-2.5-4.3c-.9-1.4-1.6-2.9-2.1-4.4-.2-1-1.1-1.8-2.1-2-.9-.2-1.8.1-2.4.8-.6.8-.6,1.9-.1,2.8.7,1.4,1.5,2.8,2.4,4.2l2.7,4.3c.3.5.6.9.9,1.4.7,1.1,1.4,2.1,1.9,3.1.5.7.8,1.6,1.1,2.4,0,.3,0,.3,0,.4s0,0-.4,0h-.5c-3.6-.4-7.1-.3-10.7.3-3.3.7-5.5,2.6-6,5.3-.4,2.7,1,5.4,3.4,6.8,2.7,1.6,6.1,2.5,11,2.6h.2c1.2,0,2.4-.5,3-1.5.4-.7.4-1.6,0-2.3-.6-.9-1.7-1.4-2.8-1.2-3.6.2-6.9-.4-8.9-1.5-.8-.3-1.3-1.1-1.3-1.9.3-1,1.1-1.7,2.1-1.9,2.3-.7,7.1-.6,10.7.1.6.1,1.2.4,1.7.7,1,.9,2.5,1.1,3.8.5,1-.7,1.4-1.9,1.1-3-.2-2.2-2.5-6-3.3-7.1"/>
      <path id="_パス_844" data-name="パス_844" class="st3" d="M307.9,64.9c1.3-.6,1.8-2.1,1.2-3.4,0,0,0,0,0,0-.6-1.1-2-1.8-3.9-.8-.3.1-.5.3-.7.4-.3.2-.6.3-.9.5-.6.2-1.1.4-1.7.6l2.5,4.3c1.1-.4,2.3-.9,3.4-1.5"/>
    </g>
  </g>
</svg>